<?xml version="1.0" encoding="UTF-8" standalone="no"?>
<svg
   xmlns:dc="http://purl.org/dc/elements/1.1/"
   xmlns:cc="http://creativecommons.org/ns#"
   xmlns:rdf="http://www.w3.org/1999/02/22-rdf-syntax-ns#"
   xmlns:svg="http://www.w3.org/2000/svg"
   xmlns="http://www.w3.org/2000/svg"
   xmlns:sodipodi="http://sodipodi.sourceforge.net/DTD/sodipodi-0.dtd"
   xmlns:inkscape="http://www.inkscape.org/namespaces/inkscape"
   version="1.1"
   width="2.43078cm"
   height="2.55778cm"
   viewBox="0 0 9570 10070 "
   id="svg972"
   sodipodi:docname="pcb-brd.svg"
   inkscape:version="0.92.2 2405546, 2018-03-11">
  <metadata
     id="metadata978">
    <rdf:RDF>
      <cc:Work
         rdf:about="">
        <dc:format>image/svg+xml</dc:format>
        <dc:type
           rdf:resource="http://purl.org/dc/dcmitype/StillImage" />
        <dc:title>SVG Picture created as pcb-brd.svg date 2018/09/25 23:55:28 </dc:title>
      </cc:Work>
    </rdf:RDF>
  </metadata>
  <defs
     id="defs976" />
  <sodipodi:namedview
     pagecolor="#ffffff"
     bordercolor="#666666"
     borderopacity="1"
     objecttolerance="10"
     gridtolerance="10"
     guidetolerance="10"
     inkscape:pageopacity="0"
     inkscape:pageshadow="2"
     inkscape:window-width="1366"
     inkscape:window-height="680"
     id="namedview974"
     showgrid="false"
     inkscape:zoom="2.4412446"
     inkscape:cx="76.686789"
     inkscape:cy="48.346847"
     inkscape:window-x="0"
     inkscape:window-y="30"
     inkscape:window-maximized="1"
     inkscape:current-layer="svg972" />
  <title
     id="title2">SVG Picture created as pcb-brd.svg date 2018/09/25 23:55:28 </title>
  <desc
     id="desc4">Picture generated by PCBNEW </desc>
  <g
     style="fill:#000000; fill-opacity:1;stroke:#000000; stroke-opacity:1; stroke-linecap:round; stroke-linejoin:round; "
     transform="translate(0 0) scale(1 1)"
     id="g6" />
  <g
     style="fill:#000000; fill-opacity:0.0;  stroke:#000000; stroke-width:-0.000393701; stroke-opacity:1;  stroke-linecap:round; stroke-linejoin:round;"
     id="g8" />
  <g
     style="fill:#848400; fill-opacity:0.0;  stroke:#848400; stroke-width:-0.000393701; stroke-opacity:1;  stroke-linecap:round; stroke-linejoin:round;"
     id="g10" />
  <g
     style="fill:#848400; fill-opacity:0.0;  stroke:#848400; stroke-width:0; stroke-opacity:1;  stroke-linecap:round; stroke-linejoin:round;"
     id="g12" />
  <g
     style="fill:#848400; fill-opacity:1.0;  stroke:#848400; stroke-width:0; stroke-opacity:1;  stroke-linecap:round; stroke-linejoin:round;"
     id="g16">
    <polyline
       style="fill-rule:evenodd;"
       points="7933,7145 7933,7933 7145,7933 7145,7145 7933,7145 "
       id="polyline14" />
  </g>
  <g
     style="fill:#848400; fill-opacity:1.0;  stroke:#848400; stroke-width:787.402; stroke-opacity:1;  stroke-linecap:round; stroke-linejoin:round;"
     id="g18" />
  <g
     style="fill:#848400; fill-opacity:0.0;  stroke:#848400; stroke-width:787.402; stroke-opacity:1;  stroke-linecap:round; stroke-linejoin:round;"
     id="g34">
    <path
       d="M4539 4539 L4539 4539 "
       id="path20" />
    <path
       d="M7539 6539 L7539 6539 "
       id="path22" />
    <path
       d="M4539 5539 L4539 5539 "
       id="path24" />
    <path
       d="M7539 5539 L7539 5539 "
       id="path26" />
    <path
       d="M4539 6539 L4539 6539 "
       id="path28" />
    <path
       d="M7539 4539 L7539 4539 "
       id="path30" />
    <path
       d="M4539 7539 L4539 7539 "
       id="path32" />
  </g>
  <g
     style="fill:#000000; fill-opacity:0.0;  stroke:#000000; stroke-width:787.402; stroke-opacity:1;  stroke-linecap:round; stroke-linejoin:round;"
     id="g36" />
  <g
     style="fill:#848400; fill-opacity:0.0;  stroke:#848400; stroke-width:787.402; stroke-opacity:1;  stroke-linecap:round; stroke-linejoin:round;"
     id="g38" />
  <g
     style="fill:#848400; fill-opacity:0.0;  stroke:#848400; stroke-width:0; stroke-opacity:1;  stroke-linecap:round; stroke-linejoin:round;"
     id="g40" />
  <g
     style="fill:#848400; fill-opacity:1.0;  stroke:#848400; stroke-width:0; stroke-opacity:1;  stroke-linecap:round; stroke-linejoin:round;"
     id="g44">
    <polyline
       style="fill-rule:evenodd;"
       points="7854,7224 7854,7854 7224,7854 7224,7224 7854,7224 "
       id="polyline42" />
  </g>
  <g
     style="fill:#848400; fill-opacity:1.0;  stroke:#848400; stroke-width:629.921; stroke-opacity:1;  stroke-linecap:round; stroke-linejoin:round;"
     id="g46" />
  <g
     style="fill:#848400; fill-opacity:0.0;  stroke:#848400; stroke-width:629.921; stroke-opacity:1;  stroke-linecap:round; stroke-linejoin:round;"
     id="g62">
    <path
       d="M4539 4539 L4539 4539 "
       id="path48" />
    <path
       d="M7539 6539 L7539 6539 "
       id="path50" />
    <path
       d="M4539 5539 L4539 5539 "
       id="path52" />
    <path
       d="M7539 5539 L7539 5539 "
       id="path54" />
    <path
       d="M4539 6539 L4539 6539 "
       id="path56" />
    <path
       d="M7539 4539 L7539 4539 "
       id="path58" />
    <path
       d="M4539 7539 L4539 7539 "
       id="path60" />
  </g>
  <g
     style="fill:#C2C2C2; fill-opacity:0.0;  stroke:#C2C2C2; stroke-width:629.921; stroke-opacity:1;  stroke-linecap:round; stroke-linejoin:round;"
     id="g64" />
  <g
     style="fill:#C2C2C2; fill-opacity:1.0;  stroke:#C2C2C2; stroke-width:0; stroke-opacity:1;  stroke-linecap:round; stroke-linejoin:round;"
     id="g68">
    <circle
       cx="3039.37"
       cy="5539.37"
       r="157.48"
       id="circle66" />
  </g>
  <g
     style="fill:#C2C2C2; fill-opacity:1.0;  stroke:#C2C2C2; stroke-width:39.3701; stroke-opacity:1;  stroke-linecap:round; stroke-linejoin:round;"
     id="g70" />
  <g
     style="fill:#C2C2C2; fill-opacity:1.0;  stroke:#C2C2C2; stroke-width:0; stroke-opacity:1;  stroke-linecap:round; stroke-linejoin:round;"
     id="g74">
    <circle
       cx="1039.37"
       cy="5539.37"
       r="157.48"
       id="circle72" />
  </g>
  <g
     style="fill:#C2C2C2; fill-opacity:1.0;  stroke:#C2C2C2; stroke-width:39.3701; stroke-opacity:1;  stroke-linecap:round; stroke-linejoin:round;"
     id="g76" />
  <g
     style="fill:#008400; fill-opacity:1.0;  stroke:#008400; stroke-width:39.3701; stroke-opacity:1;  stroke-linecap:round; stroke-linejoin:round;"
     id="g78" />
  <g
     style="fill:#008400; fill-opacity:1.0;  stroke:#008400; stroke-width:98.4252; stroke-opacity:1;  stroke-linecap:round; stroke-linejoin:round;"
     id="g80" />
  <g
     style="fill:#008400; fill-opacity:0.0;  stroke:#008400; stroke-width:98.4252; stroke-opacity:1;  stroke-linecap:round; stroke-linejoin:round;"
     id="g94">
    <path
       d="M3539 5539 L4539 6539 "
       id="path82" />
    <path
       d="M3039 5539 L3539 5539 "
       id="path84" />
    <path
       d="M1039 5539 L2039 5539 "
       id="path86" />
    <path
       d="M2039 5539 L2539 5039 "
       id="path88" />
    <path
       d="M4039 5039 L4539 5539 "
       id="path90" />
    <path
       d="M2539 5039 L4039 5039 "
       id="path92" />
  </g>
  <g
     style="fill:#FFFFFF; fill-opacity:0.0;  stroke:#FFFFFF; stroke-width:98.4252; stroke-opacity:1;  stroke-linecap:round; stroke-linejoin:round;"
     id="g96" />
  <g
     style="fill:#FFFFFF; fill-opacity:1.0;  stroke:#FFFFFF; stroke-width:0; stroke-opacity:1;  stroke-linecap:round; stroke-linejoin:round;"
     id="g100">
    <circle
       cx="3039.37"
       cy="5539.37"
       r="78.7402"
       id="circle98" />
  </g>
  <g
     style="fill:#FFFFFF; fill-opacity:1.0;  stroke:#FFFFFF; stroke-width:39.3701; stroke-opacity:1;  stroke-linecap:round; stroke-linejoin:round;"
     id="g102" />
  <g
     style="fill:#FFFFFF; fill-opacity:1.0;  stroke:#FFFFFF; stroke-width:0; stroke-opacity:1;  stroke-linecap:round; stroke-linejoin:round;"
     id="g106">
    <circle
       cx="1039.37"
       cy="5539.37"
       r="78.7402"
       id="circle104" />
  </g>
  <g
     style="fill:#FFFFFF; fill-opacity:1.0;  stroke:#FFFFFF; stroke-width:39.3701; stroke-opacity:1;  stroke-linecap:round; stroke-linejoin:round;"
     id="g108" />
  <g
     style="fill:#FFFFFF; fill-opacity:1.0;  stroke:#FFFFFF; stroke-width:0; stroke-opacity:1;  stroke-linecap:round; stroke-linejoin:round;"
     id="g112">
    <circle
       cx="7539.37"
       cy="7539.37"
       r="157.48"
       id="circle110" />
  </g>
  <g
     style="fill:#FFFFFF; fill-opacity:1.0;  stroke:#FFFFFF; stroke-width:39.3701; stroke-opacity:1;  stroke-linecap:round; stroke-linejoin:round;"
     id="g114" />
  <g
     style="fill:#FFFFFF; fill-opacity:1.0;  stroke:#FFFFFF; stroke-width:0; stroke-opacity:1;  stroke-linecap:round; stroke-linejoin:round;"
     id="g118">
    <circle
       cx="4539.37"
       cy="4539.37"
       r="157.48"
       id="circle116" />
  </g>
  <g
     style="fill:#FFFFFF; fill-opacity:1.0;  stroke:#FFFFFF; stroke-width:39.3701; stroke-opacity:1;  stroke-linecap:round; stroke-linejoin:round;"
     id="g120" />
  <g
     style="fill:#FFFFFF; fill-opacity:1.0;  stroke:#FFFFFF; stroke-width:0; stroke-opacity:1;  stroke-linecap:round; stroke-linejoin:round;"
     id="g124">
    <circle
       cx="7539.37"
       cy="6539.37"
       r="157.48"
       id="circle122" />
  </g>
  <g
     style="fill:#FFFFFF; fill-opacity:1.0;  stroke:#FFFFFF; stroke-width:39.3701; stroke-opacity:1;  stroke-linecap:round; stroke-linejoin:round;"
     id="g126" />
  <g
     style="fill:#FFFFFF; fill-opacity:1.0;  stroke:#FFFFFF; stroke-width:0; stroke-opacity:1;  stroke-linecap:round; stroke-linejoin:round;"
     id="g130">
    <circle
       cx="4539.37"
       cy="5539.37"
       r="157.48"
       id="circle128" />
  </g>
  <g
     style="fill:#FFFFFF; fill-opacity:1.0;  stroke:#FFFFFF; stroke-width:39.3701; stroke-opacity:1;  stroke-linecap:round; stroke-linejoin:round;"
     id="g132" />
  <g
     style="fill:#FFFFFF; fill-opacity:1.0;  stroke:#FFFFFF; stroke-width:0; stroke-opacity:1;  stroke-linecap:round; stroke-linejoin:round;"
     id="g136">
    <circle
       cx="7539.37"
       cy="5539.37"
       r="157.48"
       id="circle134" />
  </g>
  <g
     style="fill:#FFFFFF; fill-opacity:1.0;  stroke:#FFFFFF; stroke-width:39.3701; stroke-opacity:1;  stroke-linecap:round; stroke-linejoin:round;"
     id="g138" />
  <g
     style="fill:#FFFFFF; fill-opacity:1.0;  stroke:#FFFFFF; stroke-width:0; stroke-opacity:1;  stroke-linecap:round; stroke-linejoin:round;"
     id="g142">
    <circle
       cx="4539.37"
       cy="6539.37"
       r="157.48"
       id="circle140" />
  </g>
  <g
     style="fill:#FFFFFF; fill-opacity:1.0;  stroke:#FFFFFF; stroke-width:39.3701; stroke-opacity:1;  stroke-linecap:round; stroke-linejoin:round;"
     id="g144" />
  <g
     style="fill:#FFFFFF; fill-opacity:1.0;  stroke:#FFFFFF; stroke-width:0; stroke-opacity:1;  stroke-linecap:round; stroke-linejoin:round;"
     id="g148">
    <circle
       cx="7539.37"
       cy="4539.37"
       r="157.48"
       id="circle146" />
  </g>
  <g
     style="fill:#FFFFFF; fill-opacity:1.0;  stroke:#FFFFFF; stroke-width:39.3701; stroke-opacity:1;  stroke-linecap:round; stroke-linejoin:round;"
     id="g150" />
  <g
     style="fill:#FFFFFF; fill-opacity:1.0;  stroke:#FFFFFF; stroke-width:0; stroke-opacity:1;  stroke-linecap:round; stroke-linejoin:round;"
     id="g154">
    <circle
       cx="4539.37"
       cy="7539.37"
       r="157.48"
       id="circle152" />
  </g>
  <g
     style="fill:#FFFFFF; fill-opacity:1.0;  stroke:#FFFFFF; stroke-width:39.3701; stroke-opacity:1;  stroke-linecap:round; stroke-linejoin:round;"
     id="g156" />
  <g
     style="fill:#000000; fill-opacity:1.0;  stroke:#000000; stroke-width:39.3701; stroke-opacity:1;  stroke-linecap:round; stroke-linejoin:round;"
     id="g158" />
  <g
     style="fill:#840000; fill-opacity:1.0;  stroke:#840000; stroke-width:39.3701; stroke-opacity:1;  stroke-linecap:round; stroke-linejoin:round;"
     id="g160" />
  <g
     style="fill:#840000; fill-opacity:1.0;  stroke:#840000; stroke-width:0; stroke-opacity:1;  stroke-linecap:round; stroke-linejoin:round;"
     id="g178">
    <polyline
       style="fill-rule:evenodd;"
       points="3142,3988 3151,3989 3160,3992 3168,3995 3176,3999 3184,4003 3192,4009 3198,4015 3205,4022 3210,4029 3215,4037 3219,4045 3222,4054 3224,4063 3225,4072 3226,4081 3226,4308 3225,4317 3224,4326 3222,4335 3219,4343 3215,4352 3210,4360 3205,4367 3198,4374 3192,4380 3184,4385 3176,4390 3168,4394 3160,4397 3151,4399 3142,4401 3132,4401 2945,4401 2936,4401 2927,4399 2918,4397 2910,4394 2901,4390 2893,4385 2886,4380 2879,4374 2873,4367 2868,4360 2863,4352 2859,4343 2856,4335 2854,4326 2852,4317 2852,4308 2852,4081 2852,4072 2854,4063 2856,4054 2859,4045 2863,4037 2868,4029 2873,4022 2879,4015 2886,4009 2893,4003 2901,3999 2910,3995 2918,3992 2927,3989 2936,3988 2945,3988 3132,3988 3142,3988 "
       id="polyline162" />
    <polyline
       style="fill-rule:evenodd;"
       points="3142,4677 3151,4678 3160,4681 3168,4684 3176,4688 3184,4692 3192,4698 3198,4704 3205,4711 3210,4718 3215,4726 3219,4734 3222,4743 3224,4752 3225,4761 3226,4770 3226,4997 3225,5006 3224,5015 3222,5024 3219,5032 3215,5041 3210,5048 3205,5056 3198,5063 3192,5069 3184,5074 3176,5079 3168,5083 3160,5086 3151,5088 3142,5090 3132,5090 2945,5090 2936,5090 2927,5088 2918,5086 2910,5083 2901,5079 2893,5074 2886,5069 2879,5063 2873,5056 2868,5048 2863,5041 2859,5032 2856,5024 2854,5015 2852,5006 2852,4997 2852,4770 2852,4761 2854,4752 2856,4743 2859,4734 2863,4726 2868,4718 2873,4711 2879,4704 2886,4698 2893,4692 2901,4688 2910,4684 2918,4681 2927,4678 2936,4677 2945,4677 3132,4677 3142,4677 "
       id="polyline164" />
    <polyline
       style="fill-rule:evenodd;"
       points="1142,3988 1151,3989 1160,3992 1168,3995 1176,3999 1184,4003 1192,4009 1198,4015 1205,4022 1210,4029 1215,4037 1219,4045 1222,4054 1224,4063 1225,4072 1226,4081 1226,4308 1225,4317 1224,4326 1222,4335 1219,4343 1215,4352 1210,4360 1205,4367 1198,4374 1192,4380 1184,4385 1176,4390 1168,4394 1160,4397 1151,4399 1142,4401 1132,4401 945,4401 936,4401 927,4399 918,4397 910,4394 901,4390 893,4385 886,4380 879,4374 873,4367 868,4360 863,4352 859,4343 856,4335 854,4326 852,4317 852,4308 852,4081 852,4072 854,4063 856,4054 859,4045 863,4037 868,4029 873,4022 879,4015 886,4009 893,4003 901,3999 910,3995 918,3992 927,3989 936,3988 945,3988 1132,3988 1142,3988 "
       id="polyline166" />
    <polyline
       style="fill-rule:evenodd;"
       points="1142,4677 1151,4678 1160,4681 1168,4684 1176,4688 1184,4692 1192,4698 1198,4704 1205,4711 1210,4718 1215,4726 1219,4734 1222,4743 1224,4752 1225,4761 1226,4770 1226,4997 1225,5006 1224,5015 1222,5024 1219,5032 1215,5041 1210,5048 1205,5056 1198,5063 1192,5069 1184,5074 1176,5079 1168,5083 1160,5086 1151,5088 1142,5090 1132,5090 945,5090 936,5090 927,5088 918,5086 910,5083 901,5079 893,5074 886,5069 879,5063 873,5056 868,5048 863,5041 859,5032 856,5024 854,5015 852,5006 852,4997 852,4770 852,4761 854,4752 856,4743 859,4734 863,4726 868,4718 873,4711 879,4704 886,4698 893,4692 901,4688 910,4684 918,4681 927,4678 936,4677 945,4677 1132,4677 1142,4677 "
       id="polyline168" />
    <polyline
       style="fill-rule:evenodd;"
       points="3142,6677 3151,6678 3160,6681 3168,6684 3176,6688 3184,6692 3192,6698 3198,6704 3205,6711 3210,6718 3215,6726 3219,6734 3222,6743 3224,6752 3225,6761 3226,6770 3226,6997 3225,7006 3224,7015 3222,7024 3219,7032 3215,7041 3210,7048 3205,7056 3198,7063 3192,7069 3184,7074 3176,7079 3168,7083 3160,7086 3151,7088 3142,7090 3132,7090 2945,7090 2936,7090 2927,7088 2918,7086 2910,7083 2901,7079 2893,7074 2886,7069 2879,7063 2873,7056 2868,7048 2863,7041 2859,7032 2856,7024 2854,7015 2852,7006 2852,6997 2852,6770 2852,6761 2854,6752 2856,6743 2859,6734 2863,6726 2868,6718 2873,6711 2879,6704 2886,6698 2893,6692 2901,6688 2910,6684 2918,6681 2927,6678 2936,6677 2945,6677 3132,6677 3142,6677 "
       id="polyline170" />
    <polyline
       style="fill-rule:evenodd;"
       points="3142,5988 3151,5989 3160,5992 3168,5995 3176,5999 3184,6003 3192,6009 3198,6015 3205,6022 3210,6029 3215,6037 3219,6045 3222,6054 3224,6063 3225,6072 3226,6081 3226,6308 3225,6317 3224,6326 3222,6335 3219,6343 3215,6352 3210,6360 3205,6367 3198,6374 3192,6380 3184,6385 3176,6390 3168,6394 3160,6397 3151,6399 3142,6401 3132,6401 2945,6401 2936,6401 2927,6399 2918,6397 2910,6394 2901,6390 2893,6385 2886,6380 2879,6374 2873,6367 2868,6360 2863,6352 2859,6343 2856,6335 2854,6326 2852,6317 2852,6308 2852,6081 2852,6072 2854,6063 2856,6054 2859,6045 2863,6037 2868,6029 2873,6022 2879,6015 2886,6009 2893,6003 2901,5999 2910,5995 2918,5992 2927,5989 2936,5988 2945,5988 3132,5988 3142,5988 "
       id="polyline172" />
    <polyline
       style="fill-rule:evenodd;"
       points="1142,5988 1151,5989 1160,5992 1168,5995 1176,5999 1184,6003 1192,6009 1198,6015 1205,6022 1210,6029 1215,6037 1219,6045 1222,6054 1224,6063 1225,6072 1226,6081 1226,6308 1225,6317 1224,6326 1222,6335 1219,6343 1215,6352 1210,6360 1205,6367 1198,6374 1192,6380 1184,6385 1176,6390 1168,6394 1160,6397 1151,6399 1142,6401 1132,6401 945,6401 936,6401 927,6399 918,6397 910,6394 901,6390 893,6385 886,6380 879,6374 873,6367 868,6360 863,6352 859,6343 856,6335 854,6326 852,6317 852,6308 852,6081 852,6072 854,6063 856,6054 859,6045 863,6037 868,6029 873,6022 879,6015 886,6009 893,6003 901,5999 910,5995 918,5992 927,5989 936,5988 945,5988 1132,5988 1142,5988 "
       id="polyline174" />
    <polyline
       style="fill-rule:evenodd;"
       points="1142,6677 1151,6678 1160,6681 1168,6684 1176,6688 1184,6692 1192,6698 1198,6704 1205,6711 1210,6718 1215,6726 1219,6734 1222,6743 1224,6752 1225,6761 1226,6770 1226,6997 1225,7006 1224,7015 1222,7024 1219,7032 1215,7041 1210,7048 1205,7056 1198,7063 1192,7069 1184,7074 1176,7079 1168,7083 1160,7086 1151,7088 1142,7090 1132,7090 945,7090 936,7090 927,7088 918,7086 910,7083 901,7079 893,7074 886,7069 879,7063 873,7056 868,7048 863,7041 859,7032 856,7024 854,7015 852,7006 852,6997 852,6770 852,6761 854,6752 856,6743 859,6734 863,6726 868,6718 873,6711 879,6704 886,6698 893,6692 901,6688 910,6684 918,6681 927,6678 936,6677 945,6677 1132,6677 1142,6677 "
       id="polyline176" />
  </g>
  <g
     style="fill:#848400; fill-opacity:1.0;  stroke:#848400; stroke-width:0; stroke-opacity:1;  stroke-linecap:round; stroke-linejoin:round;"
     id="g182">
    <polyline
       style="fill-rule:evenodd;"
       points="7854,7224 7854,7854 7224,7854 7224,7224 7854,7224 "
       id="polyline180" />
  </g>
  <g
     style="fill:#848400; fill-opacity:1.0;  stroke:#848400; stroke-width:629.921; stroke-opacity:1;  stroke-linecap:round; stroke-linejoin:round;"
     id="g184" />
  <g
     style="fill:#848400; fill-opacity:0.0;  stroke:#848400; stroke-width:629.921; stroke-opacity:1;  stroke-linecap:round; stroke-linejoin:round;"
     id="g200">
    <path
       d="M4539 4539 L4539 4539 "
       id="path186" />
    <path
       d="M7539 6539 L7539 6539 "
       id="path188" />
    <path
       d="M4539 5539 L4539 5539 "
       id="path190" />
    <path
       d="M7539 5539 L7539 5539 "
       id="path192" />
    <path
       d="M4539 6539 L4539 6539 "
       id="path194" />
    <path
       d="M7539 4539 L7539 4539 "
       id="path196" />
    <path
       d="M4539 7539 L4539 7539 "
       id="path198" />
  </g>
  <g
     style="fill:#840000; fill-opacity:0.0;  stroke:#840000; stroke-width:629.921; stroke-opacity:1;  stroke-linecap:round; stroke-linejoin:round;"
     id="g202" />
  <g
     style="fill:#840000; fill-opacity:0.0;  stroke:#840000; stroke-width:0; stroke-opacity:1;  stroke-linecap:round; stroke-linejoin:round;"
     id="g204" />
  <g
     style="fill:#840000; fill-opacity:1.0;  stroke:#840000; stroke-width:0; stroke-opacity:1;  stroke-linecap:round; stroke-linejoin:round;"
     id="g216">
    <polyline
       style="fill-rule:evenodd;"
       points="7251,1879 7251,305 7842,305 7842,1879 7251,1879 "
       id="polyline206" />
    <polyline
       style="fill-rule:evenodd;"
       points="8236,1879 8236,305 8826,305 8826,1879 8236,1879 "
       id="polyline208" />
    <polyline
       style="fill-rule:evenodd;"
       points="3305,1879 3305,305 3895,305 3895,1879 3305,1879 "
       id="polyline210" />
    <polyline
       style="fill-rule:evenodd;"
       points="4289,1879 4289,305 4879,305 4879,1879 4289,1879 "
       id="polyline212" />
    <polyline
       style="fill-rule:evenodd;"
       points="5273,1879 5273,305 5864,305 5864,1879 5273,1879 "
       id="polyline214" />
  </g>
  <g
     style="fill:#C2C2C2; fill-opacity:1.0;  stroke:#C2C2C2; stroke-width:0; stroke-opacity:1;  stroke-linecap:round; stroke-linejoin:round;"
     id="g220">
    <circle
       cx="3039.37"
       cy="5539.37"
       r="157.48"
       id="circle218" />
  </g>
  <g
     style="fill:#C2C2C2; fill-opacity:1.0;  stroke:#C2C2C2; stroke-width:39.3701; stroke-opacity:1;  stroke-linecap:round; stroke-linejoin:round;"
     id="g222" />
  <g
     style="fill:#C2C2C2; fill-opacity:1.0;  stroke:#C2C2C2; stroke-width:0; stroke-opacity:1;  stroke-linecap:round; stroke-linejoin:round;"
     id="g226">
    <circle
       cx="1039.37"
       cy="5539.37"
       r="157.48"
       id="circle224" />
  </g>
  <g
     style="fill:#C2C2C2; fill-opacity:1.0;  stroke:#C2C2C2; stroke-width:39.3701; stroke-opacity:1;  stroke-linecap:round; stroke-linejoin:round;"
     id="g228" />
  <g
     style="fill:#840000; fill-opacity:1.0;  stroke:#840000; stroke-width:39.3701; stroke-opacity:1;  stroke-linecap:round; stroke-linejoin:round;"
     id="g230" />
  <g
     style="fill:#840000; fill-opacity:1.0;  stroke:#840000; stroke-width:98.4252; stroke-opacity:1;  stroke-linecap:round; stroke-linejoin:round;"
     id="g232" />
  <g
     style="fill:#840000; fill-opacity:0.0;  stroke:#840000; stroke-width:98.4252; stroke-opacity:1;  stroke-linecap:round; stroke-linejoin:round;"
     id="g286">
    <path
       d="M4584 1584 L4584 1092 "
       id="path234" />
    <path
       d="M4584 2649 L4584 1092 "
       id="path236" />
    <path
       d="M3039 4194 L4584 2649 "
       id="path238" />
    <path
       d="M2539 5694 L2842 5998 "
       id="path240" />
    <path
       d="M2842 5998 L3039 6194 "
       id="path242" />
    <path
       d="M2539 4694 L2539 5694 "
       id="path244" />
    <path
       d="M3039 4194 L2539 4694 "
       id="path246" />
    <path
       d="M3039 4883 L3039 5539 "
       id="path248" />
    <path
       d="M1039 4194 L1883 4194 "
       id="path250" />
    <path
       d="M3600 2478 L3600 1092 "
       id="path252" />
    <path
       d="M1883 4194 L3600 2478 "
       id="path254" />
    <path
       d="M1539 5694 L1539 4694 "
       id="path256" />
    <path
       d="M1235 4391 L1039 4194 "
       id="path258" />
    <path
       d="M1539 4694 L1235 4391 "
       id="path260" />
    <path
       d="M1039 6194 L1539 5694 "
       id="path262" />
    <path
       d="M1039 4883 L1039 5539 "
       id="path264" />
    <path
       d="M5568 3509 L5568 1092 "
       id="path266" />
    <path
       d="M4539 4539 L5568 3509 "
       id="path268" />
    <path
       d="M7547 1092 L7547 1978 "
       id="path270" />
    <path
       d="M6039 6039 L4539 7539 "
       id="path272" />
    <path
       d="M1039 6883 L3039 6883 "
       id="path274" />
    <path
       d="M3883 6883 L4539 7539 "
       id="path276" />
    <path
       d="M3039 6883 L3883 6883 "
       id="path278" />
    <path
       d="M6039 6039 L6039 5039 "
       id="path280" />
    <path
       d="M7547 3531 L7547 1092 "
       id="path282" />
    <path
       d="M6039 5039 L7547 3531 "
       id="path284" />
  </g>
  <g
     style="fill:#840000; fill-opacity:1.0;  stroke:#840000; stroke-width:100; stroke-opacity:1;  stroke-linecap:round; stroke-linejoin:round;"
     id="g290">
    <polyline
       style="fill-rule:evenodd;"
       points="3050,1879 3069,1977 3124,2060 3207,2115 3301,2134 3301,2354 1759,3895 1419,3895 1379,3835 1266,3759 1132,3733 945,3733 812,3759 699,3835 623,3948 597,4081 597,4308 623,4441 689,4539 623,4637 597,4770 597,4997 623,5130 699,5243 735,5267 693,5308 631,5458 631,5620 693,5770 735,5811 699,5835 623,5948 597,6081 597,6308 623,6441 689,6539 623,6637 597,6770 597,6997 623,7130 699,7243 812,7318 945,7345 1132,7345 1266,7318 1379,7243 1419,7183 2659,7183 2699,7243 2812,7318 2945,7345 3132,7345 3266,7318 3379,7243 3419,7183 3759,7183 3988,7411 3963,7539 4007,7759 4132,7946 4318,8071 4483,8104 4595,8104 4759,8071 4946,7946 5071,7759 5115,7539 5090,7411 6230,6271 6255,6255 6295,6194 6321,6156 6331,6104 6338,6068 6338,6068 6344,6039 6338,6009 6338,5539 6963,5539 7007,5759 7132,5946 7270,6039 7132,6132 7007,6318 6963,6539 7007,6759 7132,6946 7179,6978 7126,6988 7044,7044 6988,7126 6969,7224 6969,7854 6988,7951 7044,8034 7126,8089 7224,8109 7854,8109 7951,8089 8034,8034 8089,7951 8109,7854 8109,7224 8089,7126 8034,7044 7951,6988 7899,6978 7946,6946 8071,6759 8115,6539 8071,6318 7946,6132 7807,6039 7946,5946 8071,5759 8115,5539 8071,5318 7946,5132 7795,5031 7876,4993 8024,4829 8087,4676 8039,4589 7589,4589 7589,4597 7489,4597 7489,4589 7039,4589 6991,4676 7054,4829 7202,4993 7283,5031 7132,5132 7007,5318 6963,5539 6338,5539 6338,5163 7029,4472 7039,4489 7489,4489 7489,4039 7589,4039 7589,4489 8039,4489 8087,4401 8024,4249 7876,4085 7676,3991 7589,4039 7489,4039 7472,4029 7737,3763 7762,3747 7829,3648 7846,3560 7846,3560 7852,3531 7846,3502 7846,2134 7940,2115 8022,2060 8078,1977 8097,1879 8097,1089 9259,1089 9259,9759 318,9759 318,1089 3050,1089 3050,1879 "
       id="polyline288" />
  </g>
  <g
     style="fill:#FFFFFF; fill-opacity:1.0;  stroke:#FFFFFF; stroke-width:100; stroke-opacity:1;  stroke-linecap:round; stroke-linejoin:round;"
     id="g292" />
  <g
     style="fill:#FFFFFF; fill-opacity:1.0;  stroke:#FFFFFF; stroke-width:0; stroke-opacity:1;  stroke-linecap:round; stroke-linejoin:round;"
     id="g296">
    <circle
       cx="3039.37"
       cy="5539.37"
       r="78.7402"
       id="circle294" />
  </g>
  <g
     style="fill:#FFFFFF; fill-opacity:1.0;  stroke:#FFFFFF; stroke-width:39.3701; stroke-opacity:1;  stroke-linecap:round; stroke-linejoin:round;"
     id="g298" />
  <g
     style="fill:#FFFFFF; fill-opacity:1.0;  stroke:#FFFFFF; stroke-width:0; stroke-opacity:1;  stroke-linecap:round; stroke-linejoin:round;"
     id="g302">
    <circle
       cx="1039.37"
       cy="5539.37"
       r="78.7402"
       id="circle300" />
  </g>
  <g
     style="fill:#FFFFFF; fill-opacity:1.0;  stroke:#FFFFFF; stroke-width:39.3701; stroke-opacity:1;  stroke-linecap:round; stroke-linejoin:round;"
     id="g304" />
  <g
     style="fill:#FFFFFF; fill-opacity:1.0;  stroke:#FFFFFF; stroke-width:0; stroke-opacity:1;  stroke-linecap:round; stroke-linejoin:round;"
     id="g308">
    <circle
       cx="7539.37"
       cy="7539.37"
       r="157.48"
       id="circle306" />
  </g>
  <g
     style="fill:#FFFFFF; fill-opacity:1.0;  stroke:#FFFFFF; stroke-width:39.3701; stroke-opacity:1;  stroke-linecap:round; stroke-linejoin:round;"
     id="g310" />
  <g
     style="fill:#FFFFFF; fill-opacity:1.0;  stroke:#FFFFFF; stroke-width:0; stroke-opacity:1;  stroke-linecap:round; stroke-linejoin:round;"
     id="g314">
    <circle
       cx="4539.37"
       cy="4539.37"
       r="157.48"
       id="circle312" />
  </g>
  <g
     style="fill:#FFFFFF; fill-opacity:1.0;  stroke:#FFFFFF; stroke-width:39.3701; stroke-opacity:1;  stroke-linecap:round; stroke-linejoin:round;"
     id="g316" />
  <g
     style="fill:#FFFFFF; fill-opacity:1.0;  stroke:#FFFFFF; stroke-width:0; stroke-opacity:1;  stroke-linecap:round; stroke-linejoin:round;"
     id="g320">
    <circle
       cx="7539.37"
       cy="6539.37"
       r="157.48"
       id="circle318" />
  </g>
  <g
     style="fill:#FFFFFF; fill-opacity:1.0;  stroke:#FFFFFF; stroke-width:39.3701; stroke-opacity:1;  stroke-linecap:round; stroke-linejoin:round;"
     id="g322" />
  <g
     style="fill:#FFFFFF; fill-opacity:1.0;  stroke:#FFFFFF; stroke-width:0; stroke-opacity:1;  stroke-linecap:round; stroke-linejoin:round;"
     id="g326">
    <circle
       cx="4539.37"
       cy="5539.37"
       r="157.48"
       id="circle324" />
  </g>
  <g
     style="fill:#FFFFFF; fill-opacity:1.0;  stroke:#FFFFFF; stroke-width:39.3701; stroke-opacity:1;  stroke-linecap:round; stroke-linejoin:round;"
     id="g328" />
  <g
     style="fill:#FFFFFF; fill-opacity:1.0;  stroke:#FFFFFF; stroke-width:0; stroke-opacity:1;  stroke-linecap:round; stroke-linejoin:round;"
     id="g332">
    <circle
       cx="7539.37"
       cy="5539.37"
       r="157.48"
       id="circle330" />
  </g>
  <g
     style="fill:#FFFFFF; fill-opacity:1.0;  stroke:#FFFFFF; stroke-width:39.3701; stroke-opacity:1;  stroke-linecap:round; stroke-linejoin:round;"
     id="g334" />
  <g
     style="fill:#FFFFFF; fill-opacity:1.0;  stroke:#FFFFFF; stroke-width:0; stroke-opacity:1;  stroke-linecap:round; stroke-linejoin:round;"
     id="g338">
    <circle
       cx="4539.37"
       cy="6539.37"
       r="157.48"
       id="circle336" />
  </g>
  <g
     style="fill:#FFFFFF; fill-opacity:1.0;  stroke:#FFFFFF; stroke-width:39.3701; stroke-opacity:1;  stroke-linecap:round; stroke-linejoin:round;"
     id="g340" />
  <g
     style="fill:#FFFFFF; fill-opacity:1.0;  stroke:#FFFFFF; stroke-width:0; stroke-opacity:1;  stroke-linecap:round; stroke-linejoin:round;"
     id="g344">
    <circle
       cx="7539.37"
       cy="4539.37"
       r="157.48"
       id="circle342" />
  </g>
  <g
     style="fill:#FFFFFF; fill-opacity:1.0;  stroke:#FFFFFF; stroke-width:39.3701; stroke-opacity:1;  stroke-linecap:round; stroke-linejoin:round;"
     id="g346" />
  <g
     style="fill:#FFFFFF; fill-opacity:1.0;  stroke:#FFFFFF; stroke-width:0; stroke-opacity:1;  stroke-linecap:round; stroke-linejoin:round;"
     id="g350">
    <circle
       cx="4539.37"
       cy="7539.37"
       r="157.48"
       id="circle348" />
  </g>
  <g
     style="fill:#FFFFFF; fill-opacity:1.0;  stroke:#FFFFFF; stroke-width:39.3701; stroke-opacity:1;  stroke-linecap:round; stroke-linejoin:round;"
     id="g352" />
  <g
     style="fill:#000000; fill-opacity:1.0;  stroke:#000000; stroke-width:39.3701; stroke-opacity:1;  stroke-linecap:round; stroke-linejoin:round;"
     id="g354" />
  <g
     style="fill:#840000; fill-opacity:1.0;  stroke:#840000; stroke-width:39.3701; stroke-opacity:1;  stroke-linecap:round; stroke-linejoin:round;"
     id="g356" />
  <g
     style="fill:#840000; fill-opacity:1.0;  stroke:#840000; stroke-width:0; stroke-opacity:1;  stroke-linecap:round; stroke-linejoin:round;"
     id="g374">
    <polyline
       style="fill-rule:evenodd;"
       points="3185,3910 3198,3912 3210,3915 3223,3919 3234,3925 3246,3931 3256,3939 3266,3948 3274,3958 3282,3968 3289,3979 3295,3991 3299,4003 3302,4016 3304,4029 3305,4042 3305,4347 3304,4360 3302,4373 3299,4386 3295,4398 3289,4410 3282,4421 3274,4431 3266,4441 3256,4450 3246,4457 3234,4464 3223,4470 3210,4474 3198,4477 3185,4479 3172,4480 2906,4480 2893,4479 2880,4477 2867,4474 2855,4470 2843,4464 2832,4457 2822,4450 2812,4441 2803,4431 2796,4421 2789,4410 2783,4398 2779,4386 2776,4373 2774,4360 2773,4347 2773,4042 2774,4029 2776,4016 2779,4003 2783,3991 2789,3979 2796,3968 2803,3958 2812,3948 2822,3939 2832,3931 2843,3925 2855,3919 2867,3915 2880,3912 2893,3910 2906,3909 3172,3909 3185,3910 "
       id="polyline358" />
    <polyline
       style="fill-rule:evenodd;"
       points="3185,4599 3198,4600 3210,4604 3223,4608 3234,4614 3246,4620 3256,4628 3266,4637 3274,4647 3282,4657 3289,4668 3295,4680 3299,4692 3302,4705 3304,4718 3305,4731 3305,5036 3304,5049 3302,5062 3299,5074 3295,5087 3289,5099 3282,5110 3274,5120 3266,5130 3256,5139 3246,5146 3234,5153 3223,5159 3210,5163 3198,5166 3185,5168 3172,5169 2906,5169 2893,5168 2880,5166 2867,5163 2855,5159 2843,5153 2832,5146 2822,5139 2812,5130 2803,5120 2796,5110 2789,5099 2783,5087 2779,5074 2776,5062 2774,5049 2773,5036 2773,4731 2774,4718 2776,4705 2779,4692 2783,4680 2789,4668 2796,4657 2803,4647 2812,4637 2822,4628 2832,4620 2843,4614 2855,4608 2867,4604 2880,4600 2893,4599 2906,4598 3172,4598 3185,4599 "
       id="polyline360" />
    <polyline
       style="fill-rule:evenodd;"
       points="1185,3910 1198,3912 1210,3915 1223,3919 1234,3925 1246,3931 1256,3939 1266,3948 1274,3958 1282,3968 1289,3979 1295,3991 1299,4003 1302,4016 1304,4029 1305,4042 1305,4347 1304,4360 1302,4373 1299,4386 1295,4398 1289,4410 1282,4421 1274,4431 1266,4441 1256,4450 1246,4457 1234,4464 1223,4470 1210,4474 1198,4477 1185,4479 1172,4480 906,4480 893,4479 880,4477 867,4474 855,4470 843,4464 832,4457 822,4450 812,4441 803,4431 796,4421 789,4410 783,4398 779,4386 776,4373 774,4360 773,4347 773,4042 774,4029 776,4016 779,4003 783,3991 789,3979 796,3968 803,3958 812,3948 822,3939 832,3931 843,3925 855,3919 867,3915 880,3912 893,3910 906,3909 1172,3909 1185,3910 "
       id="polyline362" />
    <polyline
       style="fill-rule:evenodd;"
       points="1185,4599 1198,4600 1210,4604 1223,4608 1234,4614 1246,4620 1256,4628 1266,4637 1274,4647 1282,4657 1289,4668 1295,4680 1299,4692 1302,4705 1304,4718 1305,4731 1305,5036 1304,5049 1302,5062 1299,5074 1295,5087 1289,5099 1282,5110 1274,5120 1266,5130 1256,5139 1246,5146 1234,5153 1223,5159 1210,5163 1198,5166 1185,5168 1172,5169 906,5169 893,5168 880,5166 867,5163 855,5159 843,5153 832,5146 822,5139 812,5130 803,5120 796,5110 789,5099 783,5087 779,5074 776,5062 774,5049 773,5036 773,4731 774,4718 776,4705 779,4692 783,4680 789,4668 796,4657 803,4647 812,4637 822,4628 832,4620 843,4614 855,4608 867,4604 880,4600 893,4599 906,4598 1172,4598 1185,4599 "
       id="polyline364" />
    <polyline
       style="fill-rule:evenodd;"
       points="3185,6599 3198,6600 3210,6604 3223,6608 3234,6614 3246,6620 3256,6628 3266,6637 3274,6647 3282,6657 3289,6668 3295,6680 3299,6692 3302,6705 3304,6718 3305,6731 3305,7036 3304,7049 3302,7062 3299,7074 3295,7087 3289,7099 3282,7110 3274,7120 3266,7130 3256,7139 3246,7146 3234,7153 3223,7159 3210,7163 3198,7166 3185,7168 3172,7169 2906,7169 2893,7168 2880,7166 2867,7163 2855,7159 2843,7153 2832,7146 2822,7139 2812,7130 2803,7120 2796,7110 2789,7099 2783,7087 2779,7074 2776,7062 2774,7049 2773,7036 2773,6731 2774,6718 2776,6705 2779,6692 2783,6680 2789,6668 2796,6657 2803,6647 2812,6637 2822,6628 2832,6620 2843,6614 2855,6608 2867,6604 2880,6600 2893,6599 2906,6598 3172,6598 3185,6599 "
       id="polyline366" />
    <polyline
       style="fill-rule:evenodd;"
       points="3185,5910 3198,5912 3210,5915 3223,5919 3234,5925 3246,5931 3256,5939 3266,5948 3274,5958 3282,5968 3289,5979 3295,5991 3299,6003 3302,6016 3304,6029 3305,6042 3305,6347 3304,6360 3302,6373 3299,6386 3295,6398 3289,6410 3282,6421 3274,6431 3266,6441 3256,6450 3246,6457 3234,6464 3223,6470 3210,6474 3198,6477 3185,6479 3172,6480 2906,6480 2893,6479 2880,6477 2867,6474 2855,6470 2843,6464 2832,6457 2822,6450 2812,6441 2803,6431 2796,6421 2789,6410 2783,6398 2779,6386 2776,6373 2774,6360 2773,6347 2773,6042 2774,6029 2776,6016 2779,6003 2783,5991 2789,5979 2796,5968 2803,5958 2812,5948 2822,5939 2832,5931 2843,5925 2855,5919 2867,5915 2880,5912 2893,5910 2906,5909 3172,5909 3185,5910 "
       id="polyline368" />
    <polyline
       style="fill-rule:evenodd;"
       points="1185,5910 1198,5912 1210,5915 1223,5919 1234,5925 1246,5931 1256,5939 1266,5948 1274,5958 1282,5968 1289,5979 1295,5991 1299,6003 1302,6016 1304,6029 1305,6042 1305,6347 1304,6360 1302,6373 1299,6386 1295,6398 1289,6410 1282,6421 1274,6431 1266,6441 1256,6450 1246,6457 1234,6464 1223,6470 1210,6474 1198,6477 1185,6479 1172,6480 906,6480 893,6479 880,6477 867,6474 855,6470 843,6464 832,6457 822,6450 812,6441 803,6431 796,6421 789,6410 783,6398 779,6386 776,6373 774,6360 773,6347 773,6042 774,6029 776,6016 779,6003 783,5991 789,5979 796,5968 803,5958 812,5948 822,5939 832,5931 843,5925 855,5919 867,5915 880,5912 893,5910 906,5909 1172,5909 1185,5910 "
       id="polyline370" />
    <polyline
       style="fill-rule:evenodd;"
       points="1185,6599 1198,6600 1210,6604 1223,6608 1234,6614 1246,6620 1256,6628 1266,6637 1274,6647 1282,6657 1289,6668 1295,6680 1299,6692 1302,6705 1304,6718 1305,6731 1305,7036 1304,7049 1302,7062 1299,7074 1295,7087 1289,7099 1282,7110 1274,7120 1266,7130 1256,7139 1246,7146 1234,7153 1223,7159 1210,7163 1198,7166 1185,7168 1172,7169 906,7169 893,7168 880,7166 867,7163 855,7159 843,7153 832,7146 822,7139 812,7130 803,7120 796,7110 789,7099 783,7087 779,7074 776,7062 774,7049 773,7036 773,6731 774,6718 776,6705 779,6692 783,6680 789,6668 796,6657 803,6647 812,6637 822,6628 832,6620 843,6614 855,6608 867,6604 880,6600 893,6599 906,6598 1172,6598 1185,6599 "
       id="polyline372" />
  </g>
  <g
     style="fill:#848400; fill-opacity:1.0;  stroke:#848400; stroke-width:0; stroke-opacity:1;  stroke-linecap:round; stroke-linejoin:round;"
     id="g378">
    <polyline
       style="fill-rule:evenodd;"
       points="7933,7145 7933,7933 7145,7933 7145,7145 7933,7145 "
       id="polyline376" />
  </g>
  <g
     style="fill:#848400; fill-opacity:1.0;  stroke:#848400; stroke-width:787.402; stroke-opacity:1;  stroke-linecap:round; stroke-linejoin:round;"
     id="g380" />
  <g
     style="fill:#848400; fill-opacity:0.0;  stroke:#848400; stroke-width:787.402; stroke-opacity:1;  stroke-linecap:round; stroke-linejoin:round;"
     id="g396">
    <path
       d="M4539 4539 L4539 4539 "
       id="path382" />
    <path
       d="M7539 6539 L7539 6539 "
       id="path384" />
    <path
       d="M4539 5539 L4539 5539 "
       id="path386" />
    <path
       d="M7539 5539 L7539 5539 "
       id="path388" />
    <path
       d="M4539 6539 L4539 6539 "
       id="path390" />
    <path
       d="M7539 4539 L7539 4539 "
       id="path392" />
    <path
       d="M4539 7539 L4539 7539 "
       id="path394" />
  </g>
  <g
     style="fill:#840000; fill-opacity:0.0;  stroke:#840000; stroke-width:787.402; stroke-opacity:1;  stroke-linecap:round; stroke-linejoin:round;"
     id="g398" />
  <g
     style="fill:#840000; fill-opacity:0.0;  stroke:#840000; stroke-width:0; stroke-opacity:1;  stroke-linecap:round; stroke-linejoin:round;"
     id="g400" />
  <g
     style="fill:#840000; fill-opacity:1.0;  stroke:#840000; stroke-width:0; stroke-opacity:1;  stroke-linecap:round; stroke-linejoin:round;"
     id="g412">
    <polyline
       style="fill-rule:evenodd;"
       points="7173,1958 7173,226 7921,226 7921,1958 7173,1958 "
       id="polyline402" />
    <polyline
       style="fill-rule:evenodd;"
       points="8157,1958 8157,226 8905,226 8905,1958 8157,1958 "
       id="polyline404" />
    <polyline
       style="fill-rule:evenodd;"
       points="3226,1958 3226,226 3974,226 3974,1958 3226,1958 "
       id="polyline406" />
    <polyline
       style="fill-rule:evenodd;"
       points="4210,1958 4210,226 4958,226 4958,1958 4210,1958 "
       id="polyline408" />
    <polyline
       style="fill-rule:evenodd;"
       points="5194,1958 5194,226 5942,226 5942,1958 5194,1958 "
       id="polyline410" />
  </g>
  <g
     style="fill:#000000; fill-opacity:1.0;  stroke:#000000; stroke-width:0; stroke-opacity:1;  stroke-linecap:round; stroke-linejoin:round;"
     id="g414" />
  <g
     style="fill:#840000; fill-opacity:1.0;  stroke:#840000; stroke-width:0; stroke-opacity:1;  stroke-linecap:round; stroke-linejoin:round;"
     id="g442">
    <polyline
       style="fill-rule:evenodd;"
       points="3142,3988 3151,3989 3160,3992 3168,3995 3176,3999 3184,4003 3192,4009 3198,4015 3205,4022 3210,4029 3215,4037 3219,4045 3222,4054 3224,4063 3225,4072 3226,4081 3226,4308 3225,4317 3224,4326 3222,4335 3219,4343 3215,4352 3210,4360 3205,4367 3198,4374 3192,4380 3184,4385 3176,4390 3168,4394 3160,4397 3151,4399 3142,4401 3132,4401 2945,4401 2936,4401 2927,4399 2918,4397 2910,4394 2901,4390 2893,4385 2886,4380 2879,4374 2873,4367 2868,4360 2863,4352 2859,4343 2856,4335 2854,4326 2852,4317 2852,4308 2852,4081 2852,4072 2854,4063 2856,4054 2859,4045 2863,4037 2868,4029 2873,4022 2879,4015 2886,4009 2893,4003 2901,3999 2910,3995 2918,3992 2927,3989 2936,3988 2945,3988 3132,3988 3142,3988 "
       id="polyline416" />
    <polyline
       style="fill-rule:evenodd;"
       points="3142,4677 3151,4678 3160,4681 3168,4684 3176,4688 3184,4692 3192,4698 3198,4704 3205,4711 3210,4718 3215,4726 3219,4734 3222,4743 3224,4752 3225,4761 3226,4770 3226,4997 3225,5006 3224,5015 3222,5024 3219,5032 3215,5041 3210,5048 3205,5056 3198,5063 3192,5069 3184,5074 3176,5079 3168,5083 3160,5086 3151,5088 3142,5090 3132,5090 2945,5090 2936,5090 2927,5088 2918,5086 2910,5083 2901,5079 2893,5074 2886,5069 2879,5063 2873,5056 2868,5048 2863,5041 2859,5032 2856,5024 2854,5015 2852,5006 2852,4997 2852,4770 2852,4761 2854,4752 2856,4743 2859,4734 2863,4726 2868,4718 2873,4711 2879,4704 2886,4698 2893,4692 2901,4688 2910,4684 2918,4681 2927,4678 2936,4677 2945,4677 3132,4677 3142,4677 "
       id="polyline418" />
    <polyline
       style="fill-rule:evenodd;"
       points="1142,3988 1151,3989 1160,3992 1168,3995 1176,3999 1184,4003 1192,4009 1198,4015 1205,4022 1210,4029 1215,4037 1219,4045 1222,4054 1224,4063 1225,4072 1226,4081 1226,4308 1225,4317 1224,4326 1222,4335 1219,4343 1215,4352 1210,4360 1205,4367 1198,4374 1192,4380 1184,4385 1176,4390 1168,4394 1160,4397 1151,4399 1142,4401 1132,4401 945,4401 936,4401 927,4399 918,4397 910,4394 901,4390 893,4385 886,4380 879,4374 873,4367 868,4360 863,4352 859,4343 856,4335 854,4326 852,4317 852,4308 852,4081 852,4072 854,4063 856,4054 859,4045 863,4037 868,4029 873,4022 879,4015 886,4009 893,4003 901,3999 910,3995 918,3992 927,3989 936,3988 945,3988 1132,3988 1142,3988 "
       id="polyline420" />
    <polyline
       style="fill-rule:evenodd;"
       points="1142,4677 1151,4678 1160,4681 1168,4684 1176,4688 1184,4692 1192,4698 1198,4704 1205,4711 1210,4718 1215,4726 1219,4734 1222,4743 1224,4752 1225,4761 1226,4770 1226,4997 1225,5006 1224,5015 1222,5024 1219,5032 1215,5041 1210,5048 1205,5056 1198,5063 1192,5069 1184,5074 1176,5079 1168,5083 1160,5086 1151,5088 1142,5090 1132,5090 945,5090 936,5090 927,5088 918,5086 910,5083 901,5079 893,5074 886,5069 879,5063 873,5056 868,5048 863,5041 859,5032 856,5024 854,5015 852,5006 852,4997 852,4770 852,4761 854,4752 856,4743 859,4734 863,4726 868,4718 873,4711 879,4704 886,4698 893,4692 901,4688 910,4684 918,4681 927,4678 936,4677 945,4677 1132,4677 1142,4677 "
       id="polyline422" />
    <polyline
       style="fill-rule:evenodd;"
       points="3142,6677 3151,6678 3160,6681 3168,6684 3176,6688 3184,6692 3192,6698 3198,6704 3205,6711 3210,6718 3215,6726 3219,6734 3222,6743 3224,6752 3225,6761 3226,6770 3226,6997 3225,7006 3224,7015 3222,7024 3219,7032 3215,7041 3210,7048 3205,7056 3198,7063 3192,7069 3184,7074 3176,7079 3168,7083 3160,7086 3151,7088 3142,7090 3132,7090 2945,7090 2936,7090 2927,7088 2918,7086 2910,7083 2901,7079 2893,7074 2886,7069 2879,7063 2873,7056 2868,7048 2863,7041 2859,7032 2856,7024 2854,7015 2852,7006 2852,6997 2852,6770 2852,6761 2854,6752 2856,6743 2859,6734 2863,6726 2868,6718 2873,6711 2879,6704 2886,6698 2893,6692 2901,6688 2910,6684 2918,6681 2927,6678 2936,6677 2945,6677 3132,6677 3142,6677 "
       id="polyline424" />
    <polyline
       style="fill-rule:evenodd;"
       points="3142,5988 3151,5989 3160,5992 3168,5995 3176,5999 3184,6003 3192,6009 3198,6015 3205,6022 3210,6029 3215,6037 3219,6045 3222,6054 3224,6063 3225,6072 3226,6081 3226,6308 3225,6317 3224,6326 3222,6335 3219,6343 3215,6352 3210,6360 3205,6367 3198,6374 3192,6380 3184,6385 3176,6390 3168,6394 3160,6397 3151,6399 3142,6401 3132,6401 2945,6401 2936,6401 2927,6399 2918,6397 2910,6394 2901,6390 2893,6385 2886,6380 2879,6374 2873,6367 2868,6360 2863,6352 2859,6343 2856,6335 2854,6326 2852,6317 2852,6308 2852,6081 2852,6072 2854,6063 2856,6054 2859,6045 2863,6037 2868,6029 2873,6022 2879,6015 2886,6009 2893,6003 2901,5999 2910,5995 2918,5992 2927,5989 2936,5988 2945,5988 3132,5988 3142,5988 "
       id="polyline426" />
    <polyline
       style="fill-rule:evenodd;"
       points="1142,5988 1151,5989 1160,5992 1168,5995 1176,5999 1184,6003 1192,6009 1198,6015 1205,6022 1210,6029 1215,6037 1219,6045 1222,6054 1224,6063 1225,6072 1226,6081 1226,6308 1225,6317 1224,6326 1222,6335 1219,6343 1215,6352 1210,6360 1205,6367 1198,6374 1192,6380 1184,6385 1176,6390 1168,6394 1160,6397 1151,6399 1142,6401 1132,6401 945,6401 936,6401 927,6399 918,6397 910,6394 901,6390 893,6385 886,6380 879,6374 873,6367 868,6360 863,6352 859,6343 856,6335 854,6326 852,6317 852,6308 852,6081 852,6072 854,6063 856,6054 859,6045 863,6037 868,6029 873,6022 879,6015 886,6009 893,6003 901,5999 910,5995 918,5992 927,5989 936,5988 945,5988 1132,5988 1142,5988 "
       id="polyline428" />
    <polyline
       style="fill-rule:evenodd;"
       points="1142,6677 1151,6678 1160,6681 1168,6684 1176,6688 1184,6692 1192,6698 1198,6704 1205,6711 1210,6718 1215,6726 1219,6734 1222,6743 1224,6752 1225,6761 1226,6770 1226,6997 1225,7006 1224,7015 1222,7024 1219,7032 1215,7041 1210,7048 1205,7056 1198,7063 1192,7069 1184,7074 1176,7079 1168,7083 1160,7086 1151,7088 1142,7090 1132,7090 945,7090 936,7090 927,7088 918,7086 910,7083 901,7079 893,7074 886,7069 879,7063 873,7056 868,7048 863,7041 859,7032 856,7024 854,7015 852,7006 852,6997 852,6770 852,6761 854,6752 856,6743 859,6734 863,6726 868,6718 873,6711 879,6704 886,6698 893,6692 901,6688 910,6684 918,6681 927,6678 936,6677 945,6677 1132,6677 1142,6677 "
       id="polyline430" />
    <polyline
       style="fill-rule:evenodd;"
       points="7251,1879 7251,305 7842,305 7842,1879 7251,1879 "
       id="polyline432" />
    <polyline
       style="fill-rule:evenodd;"
       points="8236,1879 8236,305 8826,305 8826,1879 8236,1879 "
       id="polyline434" />
    <polyline
       style="fill-rule:evenodd;"
       points="3305,1879 3305,305 3895,305 3895,1879 3305,1879 "
       id="polyline436" />
    <polyline
       style="fill-rule:evenodd;"
       points="4289,1879 4289,305 4879,305 4879,1879 4289,1879 "
       id="polyline438" />
    <polyline
       style="fill-rule:evenodd;"
       points="5273,1879 5273,305 5864,305 5864,1879 5273,1879 "
       id="polyline440" />
  </g>
  <g
     style="fill:#000000; fill-opacity:1.0;  stroke:#000000; stroke-width:0; stroke-opacity:1;  stroke-linecap:round; stroke-linejoin:round;"
     id="g444" />
  <g
     style="fill:#008484; fill-opacity:1.0;  stroke:#008484; stroke-width:0; stroke-opacity:1;  stroke-linecap:round; stroke-linejoin:round;"
     id="g446" />
  <g
     style="fill:#008484; fill-opacity:0.0;  stroke:#008484; stroke-width:0; stroke-opacity:1;  stroke-linecap:round; stroke-linejoin:round;"
     id="g448" />
  <g
     style="fill:#008484; fill-opacity:0.0;  stroke:#008484; stroke-width:98.4252; stroke-opacity:1;  stroke-linecap:round; stroke-linejoin:round;"
     id="g558">
    <path
       d="M3717 3386 L3323 3386 L3323 3292 L3342 3236 L3380 3198 L3417 3179 L3492 3161 L3548 3161 L3623 3179 L3661 3198 L3698 3236 L3717 3292 L3717 3386 "
       id="path450" />
    <path
       d="M3567 2992 L3567 2692 "
       id="path452" />
    <path
       d="M4717 3386 L4323 3386 L4323 3292 L4342 3236 L4380 3198 L4417 3179 L4492 3161 L4548 3161 L4623 3179 L4661 3198 L4698 3236 L4717 3292 L4717 3386 "
       id="path454" />
    <path
       d="M4567 2992 L4567 2692 "
       id="path456" />
    <path
       d="M4717 2842 L4417 2842 "
       id="path458" />
    <path
       d="M5717 3592 L5323 3592 L5323 3442 L5342 3404 L5361 3386 L5398 3367 L5455 3367 L5492 3386 L5511 3404 L5529 3442 L5529 3592 "
       id="path460" />
    <path
       d="M5323 3236 L5717 3142 L5436 3067 L5717 2992 L5323 2898 "
       id="path462" />
    <path
       d="M5717 2748 L5323 2748 L5604 2617 L5323 2486 L5717 2486 "
       id="path464" />
    <path
       d="M7323 3620 L7323 3376 L7473 3508 L7473 3451 L7492 3414 L7511 3395 L7548 3376 L7642 3376 L7679 3395 L7698 3414 L7717 3451 L7717 3564 L7698 3601 L7679 3620 "
       id="path466" />
    <path
       d="M7679 3208 L7698 3189 L7717 3208 L7698 3226 L7679 3208 L7717 3208 "
       id="path468" />
    <path
       d="M7323 3058 L7323 2814 L7473 2945 L7473 2889 L7492 2851 L7511 2833 L7548 2814 L7642 2814 L7679 2833 L7698 2851 L7717 2889 L7717 3001 L7698 3039 L7679 3058 "
       id="path470" />
    <path
       d="M7323 2701 L7717 2570 L7323 2439 "
       id="path472" />
    <path
       d="M8342 3339 L8323 3376 L8323 3433 L8342 3489 L8380 3526 L8417 3545 L8492 3564 L8548 3564 L8623 3545 L8661 3526 L8698 3489 L8717 3433 L8717 3395 L8698 3339 L8679 3320 L8548 3320 L8548 3395 "
       id="path474" />
    <path
       d="M8717 3151 L8323 3151 L8717 2926 L8323 2926 "
       id="path476" />
    <path
       d="M8717 2739 L8323 2739 L8323 2645 L8342 2589 L8380 2551 L8417 2533 L8492 2514 L8548 2514 L8623 2533 L8661 2551 L8698 2589 L8717 2645 L8717 2739 "
       id="path478" />
    <path
       d="M2514 8573 L2477 8554 L2402 8554 L2364 8573 L2327 8610 L2308 8648 L2308 8723 L2327 8760 L2364 8797 L2402 8816 L2477 8816 L2514 8797 "
       id="path480" />
    <path
       d="M2439 8423 L2345 8441 L2252 8498 L2195 8591 L2177 8685 L2195 8779 L2252 8872 L2345 8929 L2439 8947 L2533 8929 L2627 8872 L2683 8779 L2702 8685 L2683 8591 L2627 8498 L2533 8441 L2439 8423 "
       id="path482" />
    <path
       d="M3152 8516 L3170 8498 L3208 8479 L3302 8479 L3339 8498 L3358 8516 L3377 8554 L3377 8591 L3358 8648 L3133 8872 L3377 8872 "
       id="path484" />
    <path
       d="M3620 8479 L3658 8479 L3695 8498 L3714 8516 L3733 8554 L3751 8629 L3751 8723 L3733 8797 L3714 8835 L3695 8854 L3658 8872 L3620 8872 L3583 8854 L3564 8835 L3545 8797 L3526 8723 L3526 8629 L3545 8554 L3564 8516 L3583 8498 L3620 8479 "
       id="path486" />
    <path
       d="M4126 8872 L3901 8872 "
       id="path488" />
    <path
       d="M4014 8872 L4014 8479 L3976 8535 L3939 8573 L3901 8591 "
       id="path490" />
    <path
       d="M4351 8648 L4314 8629 L4295 8610 L4276 8573 L4276 8554 L4295 8516 L4314 8498 L4351 8479 L4426 8479 L4464 8498 L4483 8516 L4501 8554 L4501 8573 L4483 8610 L4464 8629 L4426 8648 L4351 8648 L4314 8666 L4295 8685 L4276 8723 L4276 8797 L4295 8835 L4314 8854 L4351 8872 L4426 8872 L4464 8854 L4483 8835 L4501 8797 L4501 8723 L4483 8685 L4464 8666 L4426 8648 "
       id="path492" />
    <path
       d="M4970 8872 L4970 8479 L5064 8479 L5120 8498 L5158 8535 L5176 8573 L5195 8648 L5195 8704 L5176 8779 L5158 8816 L5120 8854 L5064 8872 L4970 8872 "
       id="path494" />
    <path
       d="M5420 8872 L5383 8854 L5364 8835 L5345 8797 L5345 8685 L5364 8648 L5383 8629 L5420 8610 L5476 8610 L5514 8629 L5532 8648 L5551 8685 L5551 8797 L5532 8835 L5514 8854 L5476 8872 L5420 8872 "
       id="path496" />
    <path
       d="M5701 8854 L5739 8872 L5814 8872 L5851 8854 L5870 8816 L5870 8797 L5851 8760 L5814 8741 L5757 8741 L5720 8723 L5701 8685 L5701 8666 L5720 8629 L5757 8610 L5814 8610 L5851 8629 "
       id="path498" />
    <path
       d="M6226 8872 L6039 8872 L6039 8479 "
       id="path500" />
    <path
       d="M6526 8872 L6526 8666 L6507 8629 L6470 8610 L6395 8610 L6357 8629 "
       id="path502" />
    <path
       d="M6526 8854 L6489 8872 L6395 8872 L6357 8854 L6339 8816 L6339 8779 L6357 8741 L6395 8723 L6489 8723 L6526 8704 "
       id="path504" />
    <path
       d="M6714 8872 L6714 8479 "
       id="path506" />
    <path
       d="M6714 8629 L6751 8610 L6826 8610 L6864 8629 L6882 8648 L6901 8685 L6901 8797 L6882 8835 L6864 8854 L6826 8872 L6751 8872 L6714 8854 "
       id="path508" />
    <path
       d="M2392 9561 L2392 9168 L2486 9168 L2542 9187 L2580 9224 L2598 9261 L2617 9336 L2617 9393 L2598 9468 L2580 9505 L2542 9543 L2486 9561 L2392 9561 "
       id="path510" />
    <path
       d="M2748 9299 L2842 9561 "
       id="path512" />
    <path
       d="M2936 9299 L2842 9561 L2805 9655 L2786 9674 L2748 9693 "
       id="path514" />
    <path
       d="M3086 9561 L3086 9299 "
       id="path516" />
    <path
       d="M3086 9168 L3067 9187 L3086 9205 L3105 9187 L3086 9168 L3086 9205 "
       id="path518" />
    <path
       d="M3273 9299 L3273 9561 "
       id="path520" />
    <path
       d="M3273 9336 L3292 9318 L3330 9299 L3386 9299 L3423 9318 L3442 9355 L3442 9561 "
       id="path522" />
    <path
       d="M3798 9299 L3798 9618 L3780 9655 L3761 9674 L3723 9693 L3667 9693 L3630 9674 "
       id="path524" />
    <path
       d="M3798 9543 L3761 9561 L3686 9561 L3648 9543 L3630 9524 L3611 9486 L3611 9374 L3630 9336 L3648 9318 L3686 9299 L3761 9299 L3798 9318 "
       id="path526" />
    <path
       d="M4173 9561 L3986 9561 L3986 9168 "
       id="path528" />
    <path
       d="M4305 9561 L4305 9299 "
       id="path530" />
    <path
       d="M4305 9168 L4286 9187 L4305 9205 L4323 9187 L4305 9168 L4305 9205 "
       id="path532" />
    <path
       d="M4661 9299 L4661 9618 L4642 9655 L4623 9674 L4586 9693 L4529 9693 L4492 9674 "
       id="path534" />
    <path
       d="M4661 9543 L4623 9561 L4548 9561 L4511 9543 L4492 9524 L4473 9486 L4473 9374 L4492 9336 L4511 9318 L4548 9299 L4623 9299 L4661 9318 "
       id="path536" />
    <path
       d="M4848 9561 L4848 9168 "
       id="path538" />
    <path
       d="M5017 9561 L5017 9355 L4998 9318 L4961 9299 L4904 9299 L4867 9318 L4848 9336 "
       id="path540" />
    <path
       d="M5148 9299 L5298 9299 "
       id="path542" />
    <path
       d="M5204 9168 L5204 9505 L5223 9543 L5261 9561 L5298 9561 "
       id="path544" />
    <path
       d="M5729 9561 L5729 9168 L5861 9449 L5992 9168 L5992 9561 "
       id="path546" />
    <path
       d="M6179 9561 L6179 9168 "
       id="path548" />
    <path
       d="M6217 9411 L6329 9561 "
       id="path550" />
    <path
       d="M6329 9299 L6179 9449 "
       id="path552" />
    <path
       d="M6498 9524 L6517 9543 L6498 9561 L6479 9543 L6498 9524 L6498 9561 "
       id="path554" />
    <path
       d="M6685 9561 L6685 9168 "
       id="path556" />
  </g>
  <g
     style="fill:#008484; fill-opacity:0.0;  stroke:#008484; stroke-width:47.2441; stroke-opacity:1;  stroke-linecap:round; stroke-linejoin:round;"
     id="g588">
    <path
       d="M3240 4606 L3240 4471 "
       id="path560" />
    <path
       d="M2838 4606 L2838 4471 "
       id="path562" />
    <path
       d="M1240 4471 L1240 4606 "
       id="path564" />
    <path
       d="M838 4471 L838 4606 "
       id="path566" />
    <path
       d="M2838 6606 L2838 6471 "
       id="path568" />
    <path
       d="M3240 6606 L3240 6471 "
       id="path570" />
    <path
       d="M1240 6606 L1240 6471 "
       id="path572" />
    <path
       d="M838 6606 L838 6471 "
       id="path574" />
    <path
       d="M6433.07 8062.99 A393.701 393.701 0.0 0 0 5645.67 8062.99 "
       id="path576" />
    <path
       d="M6433 8062 L7082 8062 "
       id="path578" />
    <path
       d="M7082 8062 L7082 4015 "
       id="path580" />
    <path
       d="M7082 4015 L4996 4015 "
       id="path582" />
    <path
       d="M4996 4015 L4996 8062 "
       id="path584" />
    <path
       d="M4996 8062 L5645 8062 "
       id="path586" />
  </g>
  <g
     style="fill:#008484; fill-opacity:0.0;  stroke:#008484; stroke-width:59.0551; stroke-opacity:1;  stroke-linecap:round; stroke-linejoin:round;"
     id="g640">
    <path
       d="M7370 2076 L7055 1761 "
       id="path590" />
    <path
       d="M7055 1761 L7055 108 "
       id="path592" />
    <path
       d="M7055 108 L9023 108 "
       id="path594" />
    <path
       d="M9023 108 L9023 2076 "
       id="path596" />
    <path
       d="M9023 2076 L7370 2076 "
       id="path598" />
    <path
       d="M3423 2076 L3108 1761 "
       id="path600" />
    <path
       d="M3108 1761 L3108 108 "
       id="path602" />
    <path
       d="M3108 108 L6061 108 "
       id="path604" />
    <path
       d="M6061 108 L6061 2076 "
       id="path606" />
    <path
       d="M6061 2076 L3423 2076 "
       id="path608" />
    <path
       d="M2717 4604 L2529 4736 "
       id="path610" />
    <path
       d="M2717 4829 L2323 4829 L2323 4679 L2342 4642 L2361 4623 L2398 4604 L2455 4604 L2492 4623 L2511 4642 L2529 4679 L2529 4829 "
       id="path612" />
    <path
       d="M2323 4361 L2323 4323 L2342 4286 L2361 4267 L2398 4248 L2473 4230 L2567 4230 L2642 4248 L2679 4267 L2698 4286 L2717 4323 L2717 4361 L2698 4398 L2679 4417 L2642 4436 L2567 4455 L2473 4455 L2398 4436 L2361 4417 L2342 4398 L2323 4361 "
       id="path614" />
    <path
       d="M717 4604 L529 4736 "
       id="path616" />
    <path
       d="M717 4829 L323 4829 L323 4679 L342 4642 L361 4623 L398 4604 L455 4604 L492 4623 L511 4642 L529 4679 L529 4829 "
       id="path618" />
    <path
       d="M717 4230 L717 4455 "
       id="path620" />
    <path
       d="M717 4342 L323 4342 L380 4380 L417 4417 L436 4455 "
       id="path622" />
    <path
       d="M2717 6604 L2529 6736 "
       id="path624" />
    <path
       d="M2717 6829 L2323 6829 L2323 6679 L2342 6642 L2361 6623 L2398 6604 L2455 6604 L2492 6623 L2511 6642 L2529 6679 L2529 6829 "
       id="path626" />
    <path
       d="M2361 6455 L2342 6436 L2323 6398 L2323 6305 L2342 6267 L2361 6248 L2398 6230 L2436 6230 L2492 6248 L2717 6473 L2717 6230 "
       id="path628" />
    <path
       d="M717 6604 L529 6736 "
       id="path630" />
    <path
       d="M717 6829 L323 6829 L323 6679 L342 6642 L361 6623 L398 6604 L455 6604 L492 6623 L511 6642 L529 6679 L529 6829 "
       id="path632" />
    <path
       d="M323 6473 L323 6230 L473 6361 L473 6305 L492 6267 L511 6248 L548 6230 L642 6230 L679 6248 L698 6267 L717 6305 L717 6417 L698 6455 L679 6473 "
       id="path634" />
    <path
       d="M5739 5823 L5739 6142 L5758 6179 L5776 6198 L5814 6217 L5889 6217 L5926 6198 L5945 6179 L5964 6142 L5964 5823 "
       id="path636" />
    <path
       d="M6226 5823 L6264 5823 L6301 5842 L6320 5861 L6339 5898 L6358 5973 L6358 6067 L6339 6142 L6320 6179 L6301 6198 L6264 6217 L6226 6217 L6189 6198 L6170 6179 L6151 6142 L6133 6067 L6133 5973 L6151 5898 L6170 5861 L6189 5842 L6226 5823 "
       id="path638" />
  </g>
  <g
     style="fill:#000000; fill-opacity:0.0;  stroke:#000000; stroke-width:59.0551; stroke-opacity:1;  stroke-linecap:round; stroke-linejoin:round;"
     id="g642" />
  <g
     style="fill:#848484; fill-opacity:0.0;  stroke:#848484; stroke-width:59.0551; stroke-opacity:1;  stroke-linecap:round; stroke-linejoin:round;"
     id="g644" />
  <g
     style="fill:#000000; fill-opacity:0.0;  stroke:#000000; stroke-width:59.0551; stroke-opacity:1;  stroke-linecap:round; stroke-linejoin:round;"
     id="g944" />
  <g
     style="fill:#C200C2; fill-opacity:0.0;  stroke:#C200C2; stroke-width:59.0551; stroke-opacity:1;  stroke-linecap:round; stroke-linejoin:round;"
     id="g946" />
  <g
     style="fill:#C200C2; fill-opacity:0.0;  stroke:#C200C2; stroke-width:78.7402; stroke-opacity:1;  stroke-linecap:round; stroke-linejoin:round;"
     id="g956">
    <path
       d="M39 10039 L39 39 "
       id="path948" />
    <path
       d="M9539 10039 L39 10039 "
       id="path950" />
    <path
       d="M9539 39 L9539 10039 "
       id="path952" />
    <path
       d="M39 39 L9539 39 "
       id="path954" />
  </g>
  <g
     style="fill:#000000; fill-opacity:0.0;  stroke:#000000; stroke-width:78.7402; stroke-opacity:1;  stroke-linecap:round; stroke-linejoin:round;"
     id="g958" />
  <g
     style="fill:#C2C200; fill-opacity:0.0;  stroke:#C2C200; stroke-width:78.7402; stroke-opacity:1;  stroke-linecap:round; stroke-linejoin:round;"
     id="g960" />
  <g
     style="fill:#C2C200; fill-opacity:0.0;  stroke:#C2C200; stroke-width:59.0551; stroke-opacity:1;  stroke-linecap:round; stroke-linejoin:round;"
     id="g970">
    <path
       d="M39 10039 L39 39 "
       id="path962" />
    <path
       d="M9539 10039 L39 10039 "
       id="path964" />
    <path
       d="M9539 39 L9539 10039 "
       id="path966" />
    <path
       d="M39 39 L9539 39 "
       id="path968" />
  </g>
</svg>
