<?xml version="1.0" standalone="no"?>
 <!DOCTYPE svg PUBLIC "-//W3C//DTD SVG 1.1//EN" 
 "http://www.w3.org/Graphics/SVG/1.1/DTD/svg11.dtd"> 
<svg xmlns="http://www.w3.org/2000/svg" version="1.1" 
    width="1.7907cm" height="1.92532cm" viewBox="0 0 7050 7580 ">
<title>SVG Picture created as smd_pcb-brd.svg date 2018/10/25 23:05:09 </title>
  <desc>Picture generated by PCBNEW </desc>
<g style="fill:#000000; fill-opacity:1;stroke:#000000; stroke-opacity:1;
stroke-linecap:round; stroke-linejoin:round; "
 transform="translate(0 0) scale(1 1)">
</g>
<g style="fill:#000000; fill-opacity:0.0; 
stroke:#000000; stroke-width:-0.000393701; stroke-opacity:1; 
stroke-linecap:round; stroke-linejoin:round;">
</g>
<g style="fill:#848400; fill-opacity:0.0; 
stroke:#848400; stroke-width:-0.000393701; stroke-opacity:1; 
stroke-linecap:round; stroke-linejoin:round;">
</g>
<g style="fill:#848400; fill-opacity:1.0; 
stroke:#848400; stroke-width:0; stroke-opacity:1; 
stroke-linecap:round; stroke-linejoin:round;">
<polyline style="fill-rule:evenodd;"
points="1253,5814
1393,5872
1518,5956
1625,6063
1709,6189
1767,6329
1797,6477
1797,6628
1767,6777
1709,6916
1625,7042
1518,7149
1393,7233
1253,7291
1105,7320
953,7320
805,7291
665,7233
540,7149
433,7042
349,6916
291,6777
261,6628
261,6477
291,6329
349,6189
433,6063
540,5956
665,5872
805,5814
953,5785
1105,5785
1253,5814
" /> 
</g>
<g style="fill:#000000; fill-opacity:1.0; 
stroke:#000000; stroke-width:0; stroke-opacity:1; 
stroke-linecap:round; stroke-linejoin:round;">
</g>
<g style="fill:#848400; fill-opacity:1.0; 
stroke:#848400; stroke-width:0; stroke-opacity:1; 
stroke-linecap:round; stroke-linejoin:round;">
<circle cx="1029.53" cy="6553.15" r="688.976" /> 
</g>
<g style="fill:#848400; fill-opacity:1.0; 
stroke:#848400; stroke-width:39.3701; stroke-opacity:1; 
stroke-linecap:round; stroke-linejoin:round;">
</g>
<g style="fill:#C2C2C2; fill-opacity:1.0; 
stroke:#C2C2C2; stroke-width:39.3701; stroke-opacity:1; 
stroke-linecap:round; stroke-linejoin:round;">
</g>
<g style="fill:#C2C2C2; fill-opacity:1.0; 
stroke:#C2C2C2; stroke-width:0; stroke-opacity:1; 
stroke-linecap:round; stroke-linejoin:round;">
<circle cx="5874.02" cy="2381.89" r="157.48" /> 
</g>
<g style="fill:#C2C2C2; fill-opacity:1.0; 
stroke:#C2C2C2; stroke-width:39.3701; stroke-opacity:1; 
stroke-linecap:round; stroke-linejoin:round;">
</g>
<g style="fill:#C2C2C2; fill-opacity:1.0; 
stroke:#C2C2C2; stroke-width:0; stroke-opacity:1; 
stroke-linecap:round; stroke-linejoin:round;">
<circle cx="4200.79" cy="2381.89" r="157.48" /> 
</g>
<g style="fill:#C2C2C2; fill-opacity:1.0; 
stroke:#C2C2C2; stroke-width:39.3701; stroke-opacity:1; 
stroke-linecap:round; stroke-linejoin:round;">
</g>
<g style="fill:#C2C2C2; fill-opacity:1.0; 
stroke:#C2C2C2; stroke-width:0; stroke-opacity:1; 
stroke-linecap:round; stroke-linejoin:round;">
<circle cx="2909.21" cy="3568.94" r="157.48" /> 
</g>
<g style="fill:#C2C2C2; fill-opacity:1.0; 
stroke:#C2C2C2; stroke-width:39.3701; stroke-opacity:1; 
stroke-linecap:round; stroke-linejoin:round;">
</g>
<g style="fill:#C2C2C2; fill-opacity:1.0; 
stroke:#C2C2C2; stroke-width:0; stroke-opacity:1; 
stroke-linecap:round; stroke-linejoin:round;">
<circle cx="3781.5" cy="6093.7" r="157.48" /> 
</g>
<g style="fill:#C2C2C2; fill-opacity:1.0; 
stroke:#C2C2C2; stroke-width:39.3701; stroke-opacity:1; 
stroke-linecap:round; stroke-linejoin:round;">
</g>
<g style="fill:#008400; fill-opacity:1.0; 
stroke:#008400; stroke-width:39.3701; stroke-opacity:1; 
stroke-linecap:round; stroke-linejoin:round;">
</g>
<g style="fill:#008400; fill-opacity:1.0; 
stroke:#008400; stroke-width:98.4252; stroke-opacity:1; 
stroke-linecap:round; stroke-linejoin:round;">
</g>
<g style="fill:#008400; fill-opacity:0.0; 
stroke:#008400; stroke-width:98.4252; stroke-opacity:1; 
stroke-linecap:round; stroke-linejoin:round;">
<path d="M5874 2381
L4700 2381
" />
<path d="M4700 2381
L4200 2381
" />
<path d="M4200 2381
L4200 2381
" />
<path d="M3781 6093
L3781 4441
" />
<path d="M3781 4441
L2909 3568
" />
</g>
<g style="fill:#FFFFFF; fill-opacity:0.0; 
stroke:#FFFFFF; stroke-width:98.4252; stroke-opacity:1; 
stroke-linecap:round; stroke-linejoin:round;">
</g>
<g style="fill:#FFFFFF; fill-opacity:1.0; 
stroke:#FFFFFF; stroke-width:0; stroke-opacity:1; 
stroke-linecap:round; stroke-linejoin:round;">
<circle cx="5874.02" cy="2381.89" r="78.7402" /> 
</g>
<g style="fill:#FFFFFF; fill-opacity:1.0; 
stroke:#FFFFFF; stroke-width:39.3701; stroke-opacity:1; 
stroke-linecap:round; stroke-linejoin:round;">
</g>
<g style="fill:#FFFFFF; fill-opacity:1.0; 
stroke:#FFFFFF; stroke-width:0; stroke-opacity:1; 
stroke-linecap:round; stroke-linejoin:round;">
<circle cx="4200.79" cy="2381.89" r="78.7402" /> 
</g>
<g style="fill:#FFFFFF; fill-opacity:1.0; 
stroke:#FFFFFF; stroke-width:39.3701; stroke-opacity:1; 
stroke-linecap:round; stroke-linejoin:round;">
</g>
<g style="fill:#FFFFFF; fill-opacity:1.0; 
stroke:#FFFFFF; stroke-width:0; stroke-opacity:1; 
stroke-linecap:round; stroke-linejoin:round;">
<circle cx="2909.21" cy="3568.94" r="78.7402" /> 
</g>
<g style="fill:#FFFFFF; fill-opacity:1.0; 
stroke:#FFFFFF; stroke-width:39.3701; stroke-opacity:1; 
stroke-linecap:round; stroke-linejoin:round;">
</g>
<g style="fill:#FFFFFF; fill-opacity:1.0; 
stroke:#FFFFFF; stroke-width:0; stroke-opacity:1; 
stroke-linecap:round; stroke-linejoin:round;">
<circle cx="3781.5" cy="6093.7" r="78.7402" /> 
</g>
<g style="fill:#FFFFFF; fill-opacity:1.0; 
stroke:#FFFFFF; stroke-width:39.3701; stroke-opacity:1; 
stroke-linecap:round; stroke-linejoin:round;">
</g>
<g style="fill:#FFFFFF; fill-opacity:1.0; 
stroke:#FFFFFF; stroke-width:0; stroke-opacity:1; 
stroke-linecap:round; stroke-linejoin:round;">
<circle cx="1029.53" cy="6553.15" r="433.071" /> 
</g>
<g style="fill:#FFFFFF; fill-opacity:1.0; 
stroke:#FFFFFF; stroke-width:39.3701; stroke-opacity:1; 
stroke-linecap:round; stroke-linejoin:round;">
</g>
<g style="fill:#000000; fill-opacity:1.0; 
stroke:#000000; stroke-width:39.3701; stroke-opacity:1; 
stroke-linecap:round; stroke-linejoin:round;">
</g>
<g style="fill:#840000; fill-opacity:1.0; 
stroke:#840000; stroke-width:39.3701; stroke-opacity:1; 
stroke-linecap:round; stroke-linejoin:round;">
</g>
<g style="fill:#840000; fill-opacity:1.0; 
stroke:#840000; stroke-width:0; stroke-opacity:1; 
stroke-linecap:round; stroke-linejoin:round;">
<polyline style="fill-rule:evenodd;"
points="1836,5366
1655,5185
2129,4711
2310,4892
1836,5366
" /> 
<polyline style="fill-rule:evenodd;"
points="2190,5719
2009,5538
2482,5065
2663,5246
2190,5719
" /> 
<polyline style="fill-rule:evenodd;"
points="2544,6073
2363,5892
2836,5418
3017,5599
2544,6073
" /> 
<polyline style="fill-rule:evenodd;"
points="2897,6426
2716,6245
3189,5772
3370,5953
2897,6426
" /> 
<polyline style="fill-rule:evenodd;"
points="4929,4394
4748,4213
5222,3740
5403,3921
4929,4394
" /> 
<polyline style="fill-rule:evenodd;"
points="4576,4040
4395,3859
4868,3386
5049,3567
4576,4040
" /> 
<polyline style="fill-rule:evenodd;"
points="4222,3687
4041,3506
4515,3033
4695,3214
4222,3687
" /> 
<polyline style="fill-rule:evenodd;"
points="3869,3333
3688,3152
4161,2679
4342,2860
3869,3333
" /> 
<polyline style="fill-rule:evenodd;"
points="1250,1840
1250,265
1840,265
1840,1840
1250,1840
" /> 
<polyline style="fill-rule:evenodd;"
points="2234,1840
2234,265
2824,265
2824,1840
2234,1840
" /> 
<polyline style="fill-rule:evenodd;"
points="3218,1840
3218,265
3809,265
3809,1840
3218,1840
" /> 
<polyline style="fill-rule:evenodd;"
points="4742,1840
4742,265
5332,265
5332,1840
4742,1840
" /> 
<polyline style="fill-rule:evenodd;"
points="5726,1840
5726,265
6316,265
6316,1840
5726,1840
" /> 
<polyline style="fill-rule:evenodd;"
points="2807,2366
2816,2367
2825,2370
2834,2373
2842,2377
2850,2381
2857,2387
2864,2393
2870,2400
2875,2407
2880,2415
2884,2423
2887,2432
2889,2441
2891,2450
2891,2459
2891,2646
2891,2655
2889,2664
2887,2673
2884,2682
2880,2690
2875,2698
2870,2705
2864,2712
2857,2718
2850,2724
2842,2729
2834,2733
2825,2736
2816,2738
2807,2739
2798,2740
2571,2740
2562,2739
2553,2738
2544,2736
2536,2733
2527,2729
2519,2724
2512,2718
2505,2712
2499,2705
2494,2698
2489,2690
2485,2682
2482,2673
2480,2664
2478,2655
2478,2646
2478,2459
2478,2450
2480,2441
2482,2432
2485,2423
2489,2415
2494,2407
2499,2400
2505,2393
2512,2387
2519,2381
2527,2377
2536,2373
2544,2370
2553,2367
2562,2366
2571,2366
2798,2366
2807,2366
" /> 
<polyline style="fill-rule:evenodd;"
points="3496,2366
3505,2367
3514,2370
3522,2373
3531,2377
3539,2381
3546,2387
3553,2393
3559,2400
3564,2407
3569,2415
3573,2423
3576,2432
3578,2441
3580,2450
3580,2459
3580,2646
3580,2655
3578,2664
3576,2673
3573,2682
3569,2690
3564,2698
3559,2705
3553,2712
3546,2718
3539,2724
3531,2729
3522,2733
3514,2736
3505,2738
3496,2739
3487,2740
3260,2740
3251,2739
3242,2738
3233,2736
3225,2733
3216,2729
3208,2724
3201,2718
3194,2712
3188,2705
3183,2698
3178,2690
3174,2682
3171,2673
3169,2664
3167,2655
3167,2646
3167,2459
3167,2450
3169,2441
3171,2432
3174,2423
3178,2415
3183,2407
3188,2400
3194,2393
3201,2387
3208,2381
3216,2377
3225,2373
3233,2370
3242,2367
3251,2366
3260,2366
3487,2366
3496,2366
" /> 
<polyline style="fill-rule:evenodd;"
points="1307,3866
1316,3867
1325,3870
1334,3873
1342,3877
1350,3881
1357,3887
1364,3893
1370,3900
1375,3907
1380,3915
1384,3923
1387,3932
1389,3941
1391,3950
1391,3959
1391,4146
1391,4155
1389,4164
1387,4173
1384,4182
1380,4190
1375,4198
1370,4205
1364,4212
1357,4218
1350,4224
1342,4229
1334,4233
1325,4236
1316,4238
1307,4239
1298,4240
1071,4240
1062,4239
1053,4238
1044,4236
1036,4233
1027,4229
1019,4224
1012,4218
1005,4212
999,4205
994,4198
989,4190
985,4182
982,4173
980,4164
978,4155
978,4146
978,3959
978,3950
980,3941
982,3932
985,3923
989,3915
994,3907
999,3900
1005,3893
1012,3887
1019,3881
1027,3877
1036,3873
1044,3870
1053,3867
1062,3866
1071,3866
1298,3866
1307,3866
" /> 
<polyline style="fill-rule:evenodd;"
points="1996,3866
2005,3867
2014,3870
2022,3873
2031,3877
2039,3881
2046,3887
2053,3893
2059,3900
2064,3907
2069,3915
2073,3923
2076,3932
2078,3941
2080,3950
2080,3959
2080,4146
2080,4155
2078,4164
2076,4173
2073,4182
2069,4190
2064,4198
2059,4205
2053,4212
2046,4218
2039,4224
2031,4229
2022,4233
2014,4236
2005,4238
1996,4239
1987,4240
1760,4240
1751,4239
1742,4238
1733,4236
1725,4233
1716,4229
1708,4224
1701,4218
1694,4212
1688,4205
1683,4198
1678,4190
1674,4182
1671,4173
1669,4164
1667,4155
1667,4146
1667,3959
1667,3950
1669,3941
1671,3932
1674,3923
1678,3915
1683,3907
1688,3900
1694,3893
1701,3887
1708,3881
1716,3877
1725,3873
1733,3870
1742,3867
1751,3866
1760,3866
1987,3866
1996,3866
" /> 
<polyline style="fill-rule:evenodd;"
points="4496,6366
4505,6367
4514,6370
4522,6373
4531,6377
4539,6381
4546,6387
4553,6393
4559,6400
4564,6407
4569,6415
4573,6423
4576,6432
4578,6441
4580,6450
4580,6459
4580,6646
4580,6655
4578,6664
4576,6673
4573,6682
4569,6690
4564,6698
4559,6705
4553,6712
4546,6718
4539,6724
4531,6729
4522,6733
4514,6736
4505,6738
4496,6739
4487,6740
4260,6740
4251,6739
4242,6738
4233,6736
4225,6733
4216,6729
4208,6724
4201,6718
4194,6712
4188,6705
4183,6698
4178,6690
4174,6682
4171,6673
4169,6664
4167,6655
4167,6646
4167,6459
4167,6450
4169,6441
4171,6432
4174,6423
4178,6415
4183,6407
4188,6400
4194,6393
4201,6387
4208,6381
4216,6377
4225,6373
4233,6370
4242,6367
4251,6366
4260,6366
4487,6366
4496,6366
" /> 
<polyline style="fill-rule:evenodd;"
points="3807,6366
3816,6367
3825,6370
3834,6373
3842,6377
3850,6381
3857,6387
3864,6393
3870,6400
3875,6407
3880,6415
3884,6423
3887,6432
3889,6441
3891,6450
3891,6459
3891,6646
3891,6655
3889,6664
3887,6673
3884,6682
3880,6690
3875,6698
3870,6705
3864,6712
3857,6718
3850,6724
3842,6729
3834,6733
3825,6736
3816,6738
3807,6739
3798,6740
3571,6740
3562,6739
3553,6738
3544,6736
3536,6733
3527,6729
3519,6724
3512,6718
3505,6712
3499,6705
3494,6698
3489,6690
3485,6682
3482,6673
3480,6664
3478,6655
3478,6646
3478,6459
3478,6450
3480,6441
3482,6432
3485,6423
3489,6415
3494,6407
3499,6400
3505,6393
3512,6387
3519,6381
3527,6377
3536,6373
3544,6370
3553,6367
3562,6366
3571,6366
3798,6366
3807,6366
" /> 
<polyline style="fill-rule:evenodd;"
points="5307,4866
5316,4867
5325,4870
5334,4873
5342,4877
5350,4881
5357,4887
5364,4893
5370,4900
5375,4907
5380,4915
5384,4923
5387,4932
5389,4941
5391,4950
5391,4959
5391,5146
5391,5155
5389,5164
5387,5173
5384,5182
5380,5190
5375,5198
5370,5205
5364,5212
5357,5218
5350,5224
5342,5229
5334,5233
5325,5236
5316,5238
5307,5239
5298,5240
5071,5240
5062,5239
5053,5238
5044,5236
5036,5233
5027,5229
5019,5224
5012,5218
5005,5212
4999,5205
4994,5198
4989,5190
4985,5182
4982,5173
4980,5164
4978,5155
4978,5146
4978,4959
4978,4950
4980,4941
4982,4932
4985,4923
4989,4915
4994,4907
4999,4900
5005,4893
5012,4887
5019,4881
5027,4877
5036,4873
5044,4870
5053,4867
5062,4866
5071,4866
5298,4866
5307,4866
" /> 
<polyline style="fill-rule:evenodd;"
points="5996,4866
6005,4867
6014,4870
6022,4873
6031,4877
6039,4881
6046,4887
6053,4893
6059,4900
6064,4907
6069,4915
6073,4923
6076,4932
6078,4941
6080,4950
6080,4959
6080,5146
6080,5155
6078,5164
6076,5173
6073,5182
6069,5190
6064,5198
6059,5205
6053,5212
6046,5218
6039,5224
6031,5229
6022,5233
6014,5236
6005,5238
5996,5239
5987,5240
5760,5240
5751,5239
5742,5238
5733,5236
5725,5233
5716,5229
5708,5224
5701,5218
5694,5212
5688,5205
5683,5198
5678,5190
5674,5182
5671,5173
5669,5164
5667,5155
5667,5146
5667,4959
5667,4950
5669,4941
5671,4932
5674,4923
5678,4915
5683,4907
5688,4900
5694,4893
5701,4887
5708,4881
5716,4877
5725,4873
5733,4870
5742,4867
5751,4866
5760,4866
5987,4866
5996,4866
" /> 
</g>
<g style="fill:#848400; fill-opacity:1.0; 
stroke:#848400; stroke-width:0; stroke-opacity:1; 
stroke-linecap:round; stroke-linejoin:round;">
<circle cx="1029.53" cy="6553.15" r="688.976" /> 
</g>
<g style="fill:#848400; fill-opacity:1.0; 
stroke:#848400; stroke-width:39.3701; stroke-opacity:1; 
stroke-linecap:round; stroke-linejoin:round;">
</g>
<g style="fill:#C2C2C2; fill-opacity:1.0; 
stroke:#C2C2C2; stroke-width:39.3701; stroke-opacity:1; 
stroke-linecap:round; stroke-linejoin:round;">
</g>
<g style="fill:#C2C2C2; fill-opacity:1.0; 
stroke:#C2C2C2; stroke-width:0; stroke-opacity:1; 
stroke-linecap:round; stroke-linejoin:round;">
<circle cx="5874.02" cy="2381.89" r="157.48" /> 
</g>
<g style="fill:#C2C2C2; fill-opacity:1.0; 
stroke:#C2C2C2; stroke-width:39.3701; stroke-opacity:1; 
stroke-linecap:round; stroke-linejoin:round;">
</g>
<g style="fill:#C2C2C2; fill-opacity:1.0; 
stroke:#C2C2C2; stroke-width:0; stroke-opacity:1; 
stroke-linecap:round; stroke-linejoin:round;">
<circle cx="4200.79" cy="2381.89" r="157.48" /> 
</g>
<g style="fill:#C2C2C2; fill-opacity:1.0; 
stroke:#C2C2C2; stroke-width:39.3701; stroke-opacity:1; 
stroke-linecap:round; stroke-linejoin:round;">
</g>
<g style="fill:#C2C2C2; fill-opacity:1.0; 
stroke:#C2C2C2; stroke-width:0; stroke-opacity:1; 
stroke-linecap:round; stroke-linejoin:round;">
<circle cx="2909.21" cy="3568.94" r="157.48" /> 
</g>
<g style="fill:#C2C2C2; fill-opacity:1.0; 
stroke:#C2C2C2; stroke-width:39.3701; stroke-opacity:1; 
stroke-linecap:round; stroke-linejoin:round;">
</g>
<g style="fill:#C2C2C2; fill-opacity:1.0; 
stroke:#C2C2C2; stroke-width:0; stroke-opacity:1; 
stroke-linecap:round; stroke-linejoin:round;">
<circle cx="3781.5" cy="6093.7" r="157.48" /> 
</g>
<g style="fill:#C2C2C2; fill-opacity:1.0; 
stroke:#C2C2C2; stroke-width:39.3701; stroke-opacity:1; 
stroke-linecap:round; stroke-linejoin:round;">
</g>
<g style="fill:#840000; fill-opacity:1.0; 
stroke:#840000; stroke-width:39.3701; stroke-opacity:1; 
stroke-linecap:round; stroke-linejoin:round;">
</g>
<g style="fill:#840000; fill-opacity:1.0; 
stroke:#840000; stroke-width:98.4252; stroke-opacity:1; 
stroke-linecap:round; stroke-linejoin:round;">
</g>
<g style="fill:#840000; fill-opacity:0.0; 
stroke:#840000; stroke-width:98.4252; stroke-opacity:1; 
stroke-linecap:round; stroke-linejoin:round;">
<path d="M5874 4826
L5874 5053
" />
<path d="M5037 1545
L5874 2381
" />
<path d="M5874 2381
L5874 4826
" />
<path d="M5037 1053
L5037 1545
" />
<path d="M5874 5053
L4374 6553
" />
<path d="M5874 2381
L5874 2381
" />
<path d="M4200 2821
L4015 3006
" />
<path d="M4200 2381
L4200 2821
" />
<path d="M1258 3953
L1258 3986
" />
<path d="M1258 3986
L1686 4413
" />
<path d="M1686 4413
L2262 4413
" />
<path d="M2262 4413
L2902 5053
" />
<path d="M2902 5053
L5185 5053
" />
<path d="M1258 3953
L1258 2255
" />
<path d="M1258 2255
L1545 1968
" />
<path d="M1185 4053
L1258 3979
" />
<path d="M1258 3979
L1258 3953
" />
<path d="M1545 1053
L1545 1968
" />
<path d="M2909 3568
L2685 3344
" />
<path d="M2685 3344
L2685 2553
" />
<path d="M3685 6553
L3781 6456
" />
<path d="M3781 6456
L3781 6093
" />
<path d="M2685 2553
L2529 2397
" />
<path d="M2529 2397
L2529 1053
" />
<path d="M3513 1545
L3513 1053
" />
<path d="M4021 2053
L3513 1545
" />
<path d="M4529 2053
L4021 2053
" />
<path d="M5340 2864
L4529 2053
" />
<path d="M5340 3802
L5340 2864
" />
<path d="M5075 4067
L5340 3802
" />
<path d="M3374 2553
L3374 3397
" />
<path d="M4104 3624
L4368 3360
" />
<path d="M3601 3624
L4104 3624
" />
<path d="M3374 3397
L3601 3624
" />
<path d="M4383 4053
L4722 3713
" />
<path d="M1874 4053
L4383 4053
" />
</g>
<g style="fill:#840000; fill-opacity:1.0; 
stroke:#840000; stroke-width:100; stroke-opacity:1; 
stroke-linecap:round; stroke-linejoin:round;">
<polyline style="fill-rule:evenodd;"
points="998,1840
1003,1889
1017,1936
1041,1980
1072,2018
1072,2018
1057,2033
1046,2042
1036,2054
1036,2054
1008,2088
980,2140
963,2196
957,2255
959,2269
959,3635
939,3641
880,3673
828,3715
785,3768
753,3827
733,3892
727,3959
727,4146
733,4213
753,4278
785,4338
828,4390
880,4433
939,4465
1004,4484
1071,4491
1298,4491
1336,4487
1464,4614
1473,4626
1518,4663
1570,4691
1627,4708
1671,4712
1671,4712
1686,4714
1700,4712
1773,4712
1478,5007
1447,5045
1423,5088
1409,5136
1404,5185
1409,5234
1423,5281
1447,5324
1478,5362
1659,5543
1697,5574
1740,5598
1768,5606
1777,5634
1800,5678
1831,5716
2012,5897
2050,5928
2094,5951
2122,5960
2130,5988
2154,6031
2185,6069
2366,6250
2404,6282
2447,6305
2475,6313
2476,6318
2495,6364
2522,6405
2550,6433
2639,6433
2973,6099
2967,6094
3038,6023
3043,6028
3377,5695
3377,5606
3349,5578
3308,5550
3262,5532
3257,5531
3249,5503
3226,5460
3194,5422
3125,5352
4796,5352
4828,5390
4880,5433
4939,5465
5004,5484
5017,5486
4389,6114
4260,6114
4193,6121
4188,6122
4188,6053
4173,5974
4142,5900
4098,5833
4041,5777
3974,5732
3900,5701
3821,5686
3741,5686
3662,5701
3588,5732
3537,5766
3536,5765
3448,5765
3114,6099
3120,6105
3049,6175
3043,6170
2709,6504
2709,6592
2738,6620
2779,6648
2824,6667
2872,6676
2922,6676
2970,6667
3016,6648
3056,6620
3228,6449
3227,6459
3227,6646
3233,6713
3253,6778
3285,6838
3328,6890
3380,6933
3439,6965
3504,6984
3571,6991
3798,6991
3865,6984
3930,6965
3989,6933
4029,6900
4069,6933
4128,6965
4193,6984
4260,6991
4487,6991
4554,6984
4619,6965
4678,6933
4730,6890
4773,6838
4805,6778
4825,6713
4831,6646
4831,6518
5858,5491
5987,5491
6054,5484
6119,5465
6178,5433
6230,5390
6273,5338
6305,5278
6325,5213
6331,5146
6331,4959
6325,4892
6305,4827
6273,4768
6230,4715
6178,4673
6173,4670
6173,2658
6190,2641
6235,2574
6265,2500
6281,2422
6281,2341
6265,2263
6235,2188
6190,2122
6133,2065
6067,2020
5992,1990
5914,1974
5889,1974
5583,1668
5583,603
6479,603
6479,7003
1853,7003
1906,6902
1957,6724
1972,6540
1952,6356
1896,6180
1821,6039
1686,5966
1100,6553
1105,6558
1035,6629
1029,6623
1023,6629
953,6558
958,6553
953,6547
1023,6476
1029,6482
1616,5895
1542,5761
1378,5676
1200,5625
1016,5609
832,5630
656,5686
579,5727
579,603
998,603
998,1840
" /> 
</g>
<g style="fill:#FFFFFF; fill-opacity:1.0; 
stroke:#FFFFFF; stroke-width:100; stroke-opacity:1; 
stroke-linecap:round; stroke-linejoin:round;">
</g>
<g style="fill:#FFFFFF; fill-opacity:1.0; 
stroke:#FFFFFF; stroke-width:0; stroke-opacity:1; 
stroke-linecap:round; stroke-linejoin:round;">
<circle cx="5874.02" cy="2381.89" r="78.7402" /> 
</g>
<g style="fill:#FFFFFF; fill-opacity:1.0; 
stroke:#FFFFFF; stroke-width:39.3701; stroke-opacity:1; 
stroke-linecap:round; stroke-linejoin:round;">
</g>
<g style="fill:#FFFFFF; fill-opacity:1.0; 
stroke:#FFFFFF; stroke-width:0; stroke-opacity:1; 
stroke-linecap:round; stroke-linejoin:round;">
<circle cx="4200.79" cy="2381.89" r="78.7402" /> 
</g>
<g style="fill:#FFFFFF; fill-opacity:1.0; 
stroke:#FFFFFF; stroke-width:39.3701; stroke-opacity:1; 
stroke-linecap:round; stroke-linejoin:round;">
</g>
<g style="fill:#FFFFFF; fill-opacity:1.0; 
stroke:#FFFFFF; stroke-width:0; stroke-opacity:1; 
stroke-linecap:round; stroke-linejoin:round;">
<circle cx="2909.21" cy="3568.94" r="78.7402" /> 
</g>
<g style="fill:#FFFFFF; fill-opacity:1.0; 
stroke:#FFFFFF; stroke-width:39.3701; stroke-opacity:1; 
stroke-linecap:round; stroke-linejoin:round;">
</g>
<g style="fill:#FFFFFF; fill-opacity:1.0; 
stroke:#FFFFFF; stroke-width:0; stroke-opacity:1; 
stroke-linecap:round; stroke-linejoin:round;">
<circle cx="3781.5" cy="6093.7" r="78.7402" /> 
</g>
<g style="fill:#FFFFFF; fill-opacity:1.0; 
stroke:#FFFFFF; stroke-width:39.3701; stroke-opacity:1; 
stroke-linecap:round; stroke-linejoin:round;">
</g>
<g style="fill:#FFFFFF; fill-opacity:1.0; 
stroke:#FFFFFF; stroke-width:0; stroke-opacity:1; 
stroke-linecap:round; stroke-linejoin:round;">
<circle cx="1029.53" cy="6553.15" r="433.071" /> 
</g>
<g style="fill:#FFFFFF; fill-opacity:1.0; 
stroke:#FFFFFF; stroke-width:39.3701; stroke-opacity:1; 
stroke-linecap:round; stroke-linejoin:round;">
</g>
<g style="fill:#000000; fill-opacity:1.0; 
stroke:#000000; stroke-width:39.3701; stroke-opacity:1; 
stroke-linecap:round; stroke-linejoin:round;">
</g>
<g style="fill:#840084; fill-opacity:1.0; 
stroke:#840084; stroke-width:39.3701; stroke-opacity:1; 
stroke-linecap:round; stroke-linejoin:round;">
</g>
<g style="fill:#840084; fill-opacity:1.0; 
stroke:#840084; stroke-width:0; stroke-opacity:1; 
stroke-linecap:round; stroke-linejoin:round;">
<polyline style="fill-rule:evenodd;"
points="1253,5814
1393,5872
1518,5956
1625,6063
1709,6189
1767,6329
1797,6477
1797,6628
1767,6777
1709,6916
1625,7042
1518,7149
1393,7233
1253,7291
1105,7320
953,7320
805,7291
665,7233
540,7149
433,7042
349,6916
291,6777
261,6628
261,6477
291,6329
349,6189
433,6063
540,5956
665,5872
805,5814
953,5785
1105,5785
1253,5814
" /> 
<polyline style="fill-rule:evenodd;"
points="4572,6289
4592,6295
4611,6305
4627,6319
4641,6335
4650,6354
4657,6374
4659,6398
4659,6708
4657,6731
4650,6751
4641,6770
4627,6787
4611,6800
4592,6810
4572,6816
4548,6818
4199,6818
4175,6816
4155,6810
4136,6800
4120,6787
4107,6770
4097,6751
4090,6731
4088,6708
4088,6398
4090,6374
4097,6354
4107,6335
4120,6319
4136,6305
4155,6295
4175,6289
4199,6287
4548,6287
4572,6289
" /> 
<polyline style="fill-rule:evenodd;"
points="3883,6289
3903,6295
3922,6305
3938,6319
3952,6335
3962,6354
3968,6374
3970,6398
3970,6708
3968,6731
3962,6751
3952,6770
3938,6787
3922,6800
3903,6810
3883,6816
3859,6818
3510,6818
3486,6816
3466,6810
3447,6800
3431,6787
3418,6770
3408,6751
3401,6731
3399,6708
3399,6398
3401,6374
3408,6354
3418,6335
3431,6319
3447,6305
3466,6295
3486,6289
3510,6287
3859,6287
3883,6289
" /> 
<polyline style="fill-rule:evenodd;"
points="2456,4927
2456,4927
3155,5626
3155,5626
3482,5953
2897,6538
2578,6219
2578,6219
1863,5503
1863,5503
1544,5185
2129,4600
2456,4927
" /> 
<polyline style="fill-rule:evenodd;"
points="5383,4789
5403,4795
5422,4805
5438,4819
5452,4835
5462,4854
5468,4874
5470,4898
5470,5208
5468,5231
5462,5251
5452,5270
5438,5287
5422,5300
5403,5310
5383,5316
5359,5318
5010,5318
4986,5316
4966,5310
4947,5300
4931,5287
4918,5270
4908,5251
4901,5231
4899,5208
4899,4898
4901,4874
4908,4854
4918,4835
4931,4819
4947,4805
4966,4795
4986,4789
5010,4787
5359,4787
5383,4789
" /> 
<polyline style="fill-rule:evenodd;"
points="6072,4789
6092,4795
6111,4805
6127,4819
6141,4835
6150,4854
6157,4874
6159,4898
6159,5208
6157,5231
6150,5251
6141,5270
6127,5287
6111,5300
6092,5310
6072,5316
6048,5318
5699,5318
5675,5316
5655,5310
5636,5300
5620,5287
5607,5270
5597,5251
5590,5231
5588,5208
5588,4898
5590,4874
5597,4854
5607,4835
5620,4819
5636,4805
5655,4795
5675,4789
5699,4787
6048,4787
6072,4789
" /> 
<polyline style="fill-rule:evenodd;"
points="4480,2886
4480,2886
5195,3602
5195,3602
5514,3921
4929,4505
4602,4178
4602,4178
3903,3479
3903,3479
3576,3152
4161,2568
4480,2886
" /> 
<polyline style="fill-rule:evenodd;"
points="2072,3789
2092,3795
2111,3805
2127,3819
2141,3835
2150,3854
2157,3874
2159,3898
2159,4208
2157,4231
2150,4251
2141,4270
2127,4287
2111,4300
2092,4310
2072,4316
2048,4318
1699,4318
1675,4316
1655,4310
1636,4300
1620,4287
1607,4270
1597,4251
1590,4231
1588,4208
1588,3898
1590,3874
1597,3854
1607,3835
1620,3819
1636,3805
1655,3795
1675,3789
1699,3787
2048,3787
2072,3789
" /> 
<polyline style="fill-rule:evenodd;"
points="1383,3789
1403,3795
1422,3805
1438,3819
1452,3835
1462,3854
1468,3874
1470,3898
1470,4208
1468,4231
1462,4251
1452,4270
1438,4287
1422,4300
1403,4310
1383,4316
1359,4318
1010,4318
986,4316
966,4310
947,4300
931,4287
918,4270
908,4251
901,4231
899,4208
899,3898
901,3874
908,3854
918,3835
931,3819
947,3805
966,3795
986,3789
1010,3787
1359,3787
1383,3789
" /> 
<polyline style="fill-rule:evenodd;"
points="3572,2289
3592,2295
3611,2305
3627,2319
3641,2335
3650,2354
3657,2374
3659,2398
3659,2708
3657,2731
3650,2751
3641,2770
3627,2787
3611,2800
3592,2810
3572,2816
3548,2818
3199,2818
3175,2816
3155,2810
3136,2800
3120,2787
3107,2770
3097,2751
3090,2731
3088,2708
3088,2398
3090,2374
3097,2354
3107,2335
3120,2319
3136,2305
3155,2295
3175,2289
3199,2287
3548,2287
3572,2289
" /> 
<polyline style="fill-rule:evenodd;"
points="2883,2289
2903,2295
2922,2305
2938,2319
2952,2335
2962,2354
2968,2374
2970,2398
2970,2708
2968,2731
2962,2751
2952,2770
2938,2787
2922,2800
2903,2810
2883,2816
2859,2818
2510,2818
2486,2816
2466,2810
2447,2800
2431,2787
2418,2770
2408,2751
2401,2731
2399,2708
2399,2398
2401,2374
2408,2354
2418,2335
2431,2319
2447,2305
2466,2295
2486,2289
2510,2287
2859,2287
2883,2289
" /> 
<polyline style="fill-rule:evenodd;"
points="5411,1919
4663,1919
4663,187
5411,187
5411,1919
" /> 
<polyline style="fill-rule:evenodd;"
points="6395,1919
5647,1919
5647,187
6395,187
6395,1919
" /> 
<polyline style="fill-rule:evenodd;"
points="1919,1919
1171,1919
1171,187
1919,187
1919,1919
" /> 
<polyline style="fill-rule:evenodd;"
points="3887,1919
3139,1919
3139,187
3887,187
3887,1919
" /> 
<polyline style="fill-rule:evenodd;"
points="2903,1919
2155,1919
2155,187
2903,187
2903,1919
" /> 
</g>
<g style="fill:#000000; fill-opacity:1.0; 
stroke:#000000; stroke-width:0; stroke-opacity:1; 
stroke-linecap:round; stroke-linejoin:round;">
</g>
<g style="fill:#008484; fill-opacity:1.0; 
stroke:#008484; stroke-width:0; stroke-opacity:1; 
stroke-linecap:round; stroke-linejoin:round;">
</g>
<g style="fill:#008484; fill-opacity:1.0; 
stroke:#008484; stroke-width:59.0551; stroke-opacity:1; 
stroke-linecap:round; stroke-linejoin:round;">
</g>
<g style="fill:#008484; fill-opacity:0.0; 
stroke:#008484; stroke-width:59.0551; stroke-opacity:1; 
stroke-linecap:round; stroke-linejoin:round;">
<path d="M1996 4551
L2054 4608
" />
<path d="M3528 3020
L3611 3104
" />
<path d="M5062 4554
L4978 4471
" />
<path d="M3530 6085
L3447 6002
" />
<path d="M1996 4551
L3528 3020
" />
<path d="M3530 6085
L5062 4554
" />
<path d="M2054 4608
L1566 5096
" />
<path d="M1368 2037
L1053 1722
" />
<path d="M1053 1722
L1053 68
" />
<path d="M1053 68
L4005 68
" />
<path d="M4005 68
L4005 2037
" />
<path d="M4005 2037
L1368 2037
" />
<path d="M4860 2037
L4545 1722
" />
<path d="M4545 1722
L4545 68
" />
<path d="M4545 68
L6513 68
" />
<path d="M6513 68
L6513 2037
" />
<path d="M6513 2037
L4860 2037
" />
</g>
<g style="fill:#008484; fill-opacity:0.0; 
stroke:#008484; stroke-width:47.2441; stroke-opacity:1; 
stroke-linecap:round; stroke-linejoin:round;">
<path d="M3096 2352
L2962 2352
" />
<path d="M3096 2753
L2962 2753
" />
<path d="M1462 3852
L1596 3852
" />
<path d="M1462 4253
L1596 4253
" />
<path d="M4096 6753
L3962 6753
" />
<path d="M4096 6352
L3962 6352
" />
<path d="M5596 4852
L5462 4852
" />
<path d="M5596 5253
L5462 5253
" />
</g>
<g style="fill:#008484; fill-opacity:0.0; 
stroke:#008484; stroke-width:59.0551; stroke-opacity:1; 
stroke-linecap:round; stroke-linejoin:round;">
<path d="M3164 4612
L3390 4838
L3430 4851
L3456 4851
L3496 4838
L3549 4785
L3562 4745
L3562 4718
L3549 4679
L3324 4453
" />
<path d="M3509 4268
L3536 4241
L3575 4228
L3602 4228
L3642 4241
L3708 4281
L3774 4347
L3814 4413
L3827 4453
L3827 4480
L3814 4520
L3788 4546
L3748 4559
L3721 4559
L3681 4546
L3615 4506
L3549 4440
L3509 4374
L3496 4334
L3496 4307
L3509 4268
" />
<path d="M1963 2731
L1832 2543
" />
<path d="M1738 2731
L1738 2337
L1888 2337
L1926 2356
L1945 2375
L1963 2412
L1963 2468
L1945 2506
L1926 2525
L1888 2543
L1738 2543
" />
<path d="M2207 2337
L2245 2337
L2282 2356
L2301 2375
L2320 2412
L2338 2487
L2338 2581
L2320 2656
L2301 2693
L2282 2712
L2245 2731
L2207 2731
L2170 2712
L2151 2693
L2132 2656
L2113 2581
L2113 2487
L2132 2412
L2151 2375
L2170 2356
L2207 2337
" />
<path d="M1463 3668
L1332 3480
" />
<path d="M1238 3668
L1238 3274
L1388 3274
L1426 3293
L1445 3312
L1463 3349
L1463 3405
L1445 3443
L1426 3462
L1388 3480
L1238 3480
" />
<path d="M1838 3668
L1613 3668
" />
<path d="M1726 3668
L1726 3274
L1688 3330
L1651 3368
L1613 3387
" />
<path d="M4963 6731
L4832 6543
" />
<path d="M4738 6731
L4738 6337
L4888 6337
L4926 6356
L4945 6375
L4963 6412
L4963 6468
L4945 6506
L4926 6525
L4888 6543
L4738 6543
" />
<path d="M5113 6375
L5132 6356
L5170 6337
L5263 6337
L5301 6356
L5320 6375
L5338 6412
L5338 6450
L5320 6506
L5095 6731
L5338 6731
" />
<path d="M5463 5794
L5332 5606
" />
<path d="M5238 5794
L5238 5400
L5388 5400
L5426 5419
L5445 5438
L5463 5475
L5463 5531
L5445 5569
L5426 5588
L5388 5606
L5238 5606
" />
<path d="M5595 5400
L5838 5400
L5707 5550
L5763 5550
L5801 5569
L5820 5588
L5838 5625
L5838 5719
L5820 5756
L5801 5775
L5763 5794
L5651 5794
L5613 5775
L5595 5756
" />
</g>
<g style="fill:#000000; fill-opacity:0.0; 
stroke:#000000; stroke-width:59.0551; stroke-opacity:1; 
stroke-linecap:round; stroke-linejoin:round;">
</g>
<g style="fill:#C2C200; fill-opacity:0.0; 
stroke:#C2C200; stroke-width:59.0551; stroke-opacity:1; 
stroke-linecap:round; stroke-linejoin:round;">
<path d="M29 7553
L29 53
" />
<path d="M7029 7553
L29 7553
" />
<path d="M7029 53
L7029 7553
" />
<path d="M29 53
L7029 53
" />
</g> 
</svg>
